  0
SECTION
  2
HEADER
  9
$ACADVER
  1
AC1018
  9
$HANDSEED
  5
FFFFFFFF
  9
$ANGBASE
  50
0.0
  9
$ANGDIR
  70
1
  9
$MEASUREMENT
  70
0
  9
$INSUNITS
  70
1
  0
ENDSEC
  0
SECTION
  2
TABLES
  0
TABLE
  2
APPID
  5
1
330
0
100
AcDbSymbolTable
 70
1
  0
APPID
  5
2
330
1
100
AcDbSymbolTableRecord
100
AcDbRegAppTableRecord
  2
ACAD
 70
0
  0
ENDTAB
  0
TABLE
  2
LTYPE
  5
3
330
0
100
AcDbSymbolTable
 70
6
  0
LTYPE
  5
4
330
3
100
AcDbSymbolTableRecord
100
AcDbLinetypeTableRecord
  2
ByBlock
 70
0
  3

 72
65
 73
0
 40
0
  0
LTYPE
  5
5
330
3
100
AcDbSymbolTableRecord
100
AcDbLinetypeTableRecord
  2
ByLayer
 70
0
  3

 72
65
 73
0
 40
0
  0
LTYPE
  5
6
330
3
100
AcDbSymbolTableRecord
100
AcDbLinetypeTableRecord
  2
CONTINUOUS
 70
0
  3
Solid line
 72
65
 73
0
 40
0
  0
LTYPE
  5
7
330
3
100
AcDbSymbolTableRecord
100
AcDbLinetypeTableRecord
  2
DASHDOT
 70
0
  3
Dash Dot ____ _ ____ _
 72
65
 73
4
 40
2
 49
1.25
 74
0
 49
-0.25
 74
0
 49
0.25
 74
0
 49
-0.25
 74
0
  0
LTYPE
  5
8
330
3
100
AcDbSymbolTableRecord
100
AcDbLinetypeTableRecord
  2
DASHED
 70
0
  3
Dashed __ __ __ __ __
 72
65
 73
2
 40
0.75
 49
0.5
 74
0
 49
-0.25
 74
0
  0
LTYPE
  5
9
330
3
100
AcDbSymbolTableRecord
100
AcDbLinetypeTableRecord
  2
DOTTED
 70
0
  3
Dotted .  .  .  .
 72
65
 73
2
 40
0.2
 49
0.0
 74
0
 49
-0.2
 74
0
  0
ENDTAB
  0
TABLE
  2
STYLE
  5
A
330
0
100
AcDbSymbolTable
 70
4
  0
STYLE
  5
B
330
A
100
AcDbSymbolTableRecord
100
AcDbTextStyleTableRecord
  2
KICAD
 70
0
 40
0
 41
1
 42
1
 50
0
 71
0
  3
isocp.shx
  0
STYLE
  5
C
330
A
100
AcDbSymbolTableRecord
100
AcDbTextStyleTableRecord
  2
KICADB
 70
0
 40
0
 41
1
 42
1
 50
0
 71
0
  3
isocp.shx
  0
STYLE
  5
D
330
A
100
AcDbSymbolTableRecord
100
AcDbTextStyleTableRecord
  2
KICADI
 70
0
 40
0
 41
1
 42
1
 50
15
 71
0
  3
isocp.shx
  0
STYLE
  5
E
330
A
100
AcDbSymbolTableRecord
100
AcDbTextStyleTableRecord
  2
KICADBI
 70
0
 40
0
 41
1
 42
1
 50
15
 71
0
  3
isocp.shx
  0
ENDTAB
  0
TABLE
  2
LAYER
  5
F
330
0
100
AcDbSymbolTable
 70
3
  0
LAYER
  5
12
330
F
100
AcDbSymbolTableRecord
100
AcDbLayerTableRecord
  2
0
 70
0
 62
7
  6
CONTINUOUS
390
10
  0
LAYER
  5
13
330
F
100
AcDbSymbolTableRecord
100
AcDbLayerTableRecord
  2
B.Cu
 70
0
 62
153
420
5078980
  6
CONTINUOUS
390
10
  0
LAYER
  5
14
330
F
100
AcDbSymbolTableRecord
100
AcDbLayerTableRecord
  2
Edge.Cuts
 70
0
 62
254
420
13685453
  6
CONTINUOUS
390
10
  0
ENDTAB
  0
TABLE
  2
VPORT
  5
15
330
0
100
AcDbSymbolTable
 70
0
  0
ENDTAB
  0
TABLE
  2
VIEW
  5
16
330
0
100
AcDbSymbolTable
 70
0
  0
ENDTAB
  0
TABLE
  2
UCS
  5
17
330
0
100
AcDbSymbolTable
 70
0
  0
ENDTAB
  0
TABLE
  2
DIMSTYLE
  5
18
330
0
100
AcDbSymbolTable
 70
1
100
AcDbDimStyleTable
 71
0
  0
DIMSTYLE
105
19
330
18
100
AcDbSymbolTableRecord
100
AcDbDimStyleTableRecord
  2
Standard
 70
0
  0
ENDTAB
  0
TABLE
  2
BLOCK_RECORD
  5
1A
330
0
100
AcDbSymbolTable
 70
3
  0
BLOCK_RECORD
  5
1B
330
1A
100
AcDbSymbolTableRecord
100
AcDbBlockTableRecord
  2
*Model_Space
340
1E
 70
0
280
1
281
0
  0
BLOCK_RECORD
  5
1C
330
1A
100
AcDbSymbolTableRecord
100
AcDbBlockTableRecord
  2
*Paper_Space
340
1F
 70
0
280
1
281
0
  0
BLOCK_RECORD
  5
1D
330
1A
100
AcDbSymbolTableRecord
100
AcDbBlockTableRecord
  2
*Paper_Space0
340
20
 70
0
280
1
281
0
  0
ENDTAB
  0
ENDSEC
  0
SECTION
  2
BLOCKS
  0
BLOCK
  5
24
330
1B
100
AcDbEntity
  8
0
100
AcDbBlockBegin
  2
*Model_Space
 70
0
 10
0.0
 20
0.0
 30
0.0
  3
*Model_Space
  1

  0
ENDBLK
  5
23
330
1B
100
AcDbEntity
  8
0
100
AcDbBlockEnd
  0
BLOCK
  5
26
330
1C
100
AcDbEntity
 67
1
  8
0
100
AcDbBlockBegin
  2
*Paper_Space
 70
0
 10
0.0
 20
0.0
 30
0.0
  3
*Paper_Space
  1

  0
ENDBLK
  5
25
330
1C
100
AcDbEntity
 67
1
  8
0
100
AcDbBlockEnd
  0
BLOCK
  5
28
330
1D
100
AcDbEntity
 67
1
  8
0
100
AcDbBlockBegin
  2
*Paper_Space0
 70
0
 10
0.0
 20
0.0
 30
0.0
  3
*Paper_Space0
  1

  0
ENDBLK
  5
27
330
1D
100
AcDbEntity
 67
1
  8
0
100
AcDbBlockEnd
  0
ENDSEC
  0
SECTION
  2
ENTITIES
  0
LINE
  5
29
330
1B
100
AcDbEntity
  8
Edge.Cuts
  6
CONTINUOUS
100
AcDbLine
 10
4.5361960629921256
 20
-3.9044493700787402
 30
0
 11
4.5453031102362207
 21
-3.9074084251968504
 31
0
  0
LINE
  5
2A
330
1B
100
AcDbEntity
  8
Edge.Cuts
  6
CONTINUOUS
100
AcDbLine
 10
4.5453031102362207
 20
-3.9074084251968504
 30
0
 11
4.5538351574803144
 21
-3.9117557086614174
 31
0
  0
LINE
  5
2B
330
1B
100
AcDbEntity
  8
Edge.Cuts
  6
CONTINUOUS
100
AcDbLine
 10
4.5538351574803144
 20
-3.9117557086614174
 30
0
 11
4.5615820472440944
 21
-3.9173841732283465
 31
0
  0
LINE
  5
2C
330
1B
100
AcDbEntity
  8
Edge.Cuts
  6
CONTINUOUS
100
AcDbLine
 10
4.5615820472440944
 20
-3.9173841732283465
 30
0
 11
4.5683531102362203
 21
-3.9241552362204724
 31
0
  0
LINE
  5
2D
330
1B
100
AcDbEntity
  8
Edge.Cuts
  6
CONTINUOUS
100
AcDbLine
 10
4.5683531102362203
 20
-3.9241552362204724
 30
0
 11
4.5739815748031498
 21
-3.9319021259842519
 31
0
  0
LINE
  5
2E
330
1B
100
AcDbEntity
  8
Edge.Cuts
  6
CONTINUOUS
100
AcDbLine
 10
4.5739815748031498
 20
-3.9319021259842519
 30
0
 11
4.5783288582677164
 21
-3.9404341732283465
 31
0
  0
LINE
  5
2F
330
1B
100
AcDbEntity
  8
Edge.Cuts
  6
CONTINUOUS
100
AcDbLine
 10
4.5783288582677164
 20
-3.9404341732283465
 30
0
 11
4.5812879133858271
 21
-3.9495412204724407
 31
0
  0
LINE
  5
30
330
1B
100
AcDbEntity
  8
Edge.Cuts
  6
CONTINUOUS
100
AcDbLine
 10
4.5812879133858271
 20
-3.9495412204724407
 30
0
 11
4.5827859055118108
 21
-3.9589990157480313
 31
0
  0
LINE
  5
31
330
1B
100
AcDbEntity
  8
Edge.Cuts
  6
CONTINUOUS
100
AcDbLine
 10
4.5827859055118108
 20
-3.9589990157480313
 30
0
 11
4.5827859055118108
 21
-3.9685747637795274
 31
0
  0
LINE
  5
32
330
1B
100
AcDbEntity
  8
Edge.Cuts
  6
CONTINUOUS
100
AcDbLine
 10
4.5827859055118108
 20
-3.9685747637795274
 30
0
 11
4.5812879133858271
 21
-3.978032559055118
 31
0
  0
LINE
  5
33
330
1B
100
AcDbEntity
  8
Edge.Cuts
  6
CONTINUOUS
100
AcDbLine
 10
4.5812879133858271
 20
-3.978032559055118
 30
0
 11
4.5783288582677164
 21
-3.9871396062992126
 31
0
  0
LINE
  5
34
330
1B
100
AcDbEntity
  8
Edge.Cuts
  6
CONTINUOUS
100
AcDbLine
 10
4.5783288582677164
 20
-3.9871396062992126
 30
0
 11
4.5739815748031498
 21
-3.9956716535433068
 31
0
  0
LINE
  5
35
330
1B
100
AcDbEntity
  8
Edge.Cuts
  6
CONTINUOUS
100
AcDbLine
 10
4.5739815748031498
 20
-3.9956716535433068
 30
0
 11
4.5683531102362203
 21
-4.0034185433070864
 31
0
  0
LINE
  5
36
330
1B
100
AcDbEntity
  8
Edge.Cuts
  6
CONTINUOUS
100
AcDbLine
 10
4.5683531102362203
 20
-4.0034185433070864
 30
0
 11
4.5615820472440944
 21
-4.0101896062992122
 31
0
  0
LINE
  5
37
330
1B
100
AcDbEntity
  8
Edge.Cuts
  6
CONTINUOUS
100
AcDbLine
 10
4.5615820472440944
 20
-4.0101896062992122
 30
0
 11
4.5538351574803144
 21
-4.0158180708661417
 31
0
  0
LINE
  5
38
330
1B
100
AcDbEntity
  8
Edge.Cuts
  6
CONTINUOUS
100
AcDbLine
 10
4.5538351574803144
 20
-4.0158180708661417
 30
0
 11
4.5453031102362207
 21
-4.0201653543307083
 31
0
  0
LINE
  5
39
330
1B
100
AcDbEntity
  8
Edge.Cuts
  6
CONTINUOUS
100
AcDbLine
 10
4.5453031102362207
 20
-4.0201653543307083
 30
0
 11
4.5361960629921256
 21
-4.023124409448819
 31
0
  0
LINE
  5
3A
330
1B
100
AcDbEntity
  8
Edge.Cuts
  6
CONTINUOUS
100
AcDbLine
 10
4.5361960629921256
 20
-4.023124409448819
 30
0
 11
4.5267382677165351
 21
-4.0246224015748027
 31
0
  0
LINE
  5
3B
330
1B
100
AcDbEntity
  8
Edge.Cuts
  6
CONTINUOUS
100
AcDbLine
 10
4.5267382677165351
 20
-4.0246224015748027
 30
0
 11
4.5171625196850389
 21
-4.0246224015748027
 31
0
  0
LINE
  5
3C
330
1B
100
AcDbEntity
  8
Edge.Cuts
  6
CONTINUOUS
100
AcDbLine
 10
4.5171625196850389
 20
-4.0246224015748027
 30
0
 11
4.5077047244094484
 21
-4.023124409448819
 31
0
  0
LINE
  5
3D
330
1B
100
AcDbEntity
  8
Edge.Cuts
  6
CONTINUOUS
100
AcDbLine
 10
4.5077047244094484
 20
-4.023124409448819
 30
0
 11
4.4985976771653542
 21
-4.0201653543307083
 31
0
  0
LINE
  5
3E
330
1B
100
AcDbEntity
  8
Edge.Cuts
  6
CONTINUOUS
100
AcDbLine
 10
4.4985976771653542
 20
-4.0201653543307083
 30
0
 11
4.4900656299212596
 21
-4.0158180708661417
 31
0
  0
LINE
  5
3F
330
1B
100
AcDbEntity
  8
Edge.Cuts
  6
CONTINUOUS
100
AcDbLine
 10
4.4900656299212596
 20
-4.0158180708661417
 30
0
 11
4.4823187401574804
 21
-4.0101896062992122
 31
0
  0
LINE
  5
40
330
1B
100
AcDbEntity
  8
Edge.Cuts
  6
CONTINUOUS
100
AcDbLine
 10
4.4823187401574804
 20
-4.0101896062992122
 30
0
 11
4.4755476771653546
 21
-4.0034185433070864
 31
0
  0
LINE
  5
41
330
1B
100
AcDbEntity
  8
Edge.Cuts
  6
CONTINUOUS
100
AcDbLine
 10
4.4755476771653546
 20
-4.0034185433070864
 30
0
 11
4.4699192125984251
 21
-3.9956716535433068
 31
0
  0
LINE
  5
42
330
1B
100
AcDbEntity
  8
Edge.Cuts
  6
CONTINUOUS
100
AcDbLine
 10
4.4699192125984251
 20
-3.9956716535433068
 30
0
 11
4.4655719291338585
 21
-3.9871396062992126
 31
0
  0
LINE
  5
43
330
1B
100
AcDbEntity
  8
Edge.Cuts
  6
CONTINUOUS
100
AcDbLine
 10
4.4655719291338585
 20
-3.9871396062992126
 30
0
 11
4.4626128740157478
 21
-3.978032559055118
 31
0
  0
LINE
  5
44
330
1B
100
AcDbEntity
  8
Edge.Cuts
  6
CONTINUOUS
100
AcDbLine
 10
4.4626128740157478
 20
-3.978032559055118
 30
0
 11
4.4611148818897632
 21
-3.9685747637795274
 31
0
  0
LINE
  5
45
330
1B
100
AcDbEntity
  8
Edge.Cuts
  6
CONTINUOUS
100
AcDbLine
 10
4.4611148818897632
 20
-3.9685747637795274
 30
0
 11
4.4611148818897632
 21
-3.9592940944881887
 31
0
  0
LINE
  5
46
330
1B
100
AcDbEntity
  8
Edge.Cuts
  6
CONTINUOUS
100
AcDbLine
 10
4.4611148818897632
 20
-3.9592940944881887
 30
0
 11
4.4611148818897632
 21
-3.9589990157480313
 31
0
  0
LINE
  5
47
330
1B
100
AcDbEntity
  8
Edge.Cuts
  6
CONTINUOUS
100
AcDbLine
 10
4.4611148818897632
 20
-3.9589990157480313
 30
0
 11
4.4626128740157478
 21
-3.9495412204724407
 31
0
  0
LINE
  5
48
330
1B
100
AcDbEntity
  8
Edge.Cuts
  6
CONTINUOUS
100
AcDbLine
 10
4.4626128740157478
 20
-3.9495412204724407
 30
0
 11
4.4655719291338585
 21
-3.9404341732283465
 31
0
  0
LINE
  5
49
330
1B
100
AcDbEntity
  8
Edge.Cuts
  6
CONTINUOUS
100
AcDbLine
 10
4.4655719291338585
 20
-3.9404341732283465
 30
0
 11
4.4699192125984251
 21
-3.9319021259842519
 31
0
  0
LINE
  5
4A
330
1B
100
AcDbEntity
  8
Edge.Cuts
  6
CONTINUOUS
100
AcDbLine
 10
4.4699192125984251
 20
-3.9319021259842519
 30
0
 11
4.4755476771653546
 21
-3.9241552362204724
 31
0
  0
LINE
  5
4B
330
1B
100
AcDbEntity
  8
Edge.Cuts
  6
CONTINUOUS
100
AcDbLine
 10
4.4755476771653546
 20
-3.9241552362204724
 30
0
 11
4.4823187401574804
 21
-3.9173841732283465
 31
0
  0
LINE
  5
4C
330
1B
100
AcDbEntity
  8
Edge.Cuts
  6
CONTINUOUS
100
AcDbLine
 10
4.4823187401574804
 20
-3.9173841732283465
 30
0
 11
4.4900656299212596
 21
-3.9117557086614174
 31
0
  0
LINE
  5
4D
330
1B
100
AcDbEntity
  8
Edge.Cuts
  6
CONTINUOUS
100
AcDbLine
 10
4.4900656299212596
 20
-3.9117557086614174
 30
0
 11
4.4985976771653542
 21
-3.9074084251968504
 31
0
  0
LINE
  5
4E
330
1B
100
AcDbEntity
  8
Edge.Cuts
  6
CONTINUOUS
100
AcDbLine
 10
4.4985976771653542
 20
-3.9074084251968504
 30
0
 11
4.5077047244094484
 21
-3.9044493700787402
 31
0
  0
LINE
  5
4F
330
1B
100
AcDbEntity
  8
Edge.Cuts
  6
CONTINUOUS
100
AcDbLine
 10
4.5077047244094484
 20
-3.9044493700787402
 30
0
 11
4.5171625196850389
 21
-3.9029513779527556
 31
0
  0
LINE
  5
50
330
1B
100
AcDbEntity
  8
Edge.Cuts
  6
CONTINUOUS
100
AcDbLine
 10
4.5171625196850389
 20
-3.9029513779527556
 30
0
 11
4.5267382677165351
 21
-3.9029513779527556
 31
0
  0
LINE
  5
51
330
1B
100
AcDbEntity
  8
Edge.Cuts
  6
CONTINUOUS
100
AcDbLine
 10
4.5267382677165351
 20
-3.9029513779527556
 30
0
 11
4.5361960629921256
 21
-3.9044493700787402
 31
0
  0
LINE
  5
52
330
1B
100
AcDbEntity
  8
Edge.Cuts
  6
CONTINUOUS
100
AcDbLine
 10
4.4648637795275592
 20
-3.96827968503937
 30
0
 11
4.4662694488188972
 21
-3.9771547244094489
 31
0
  0
LINE
  5
53
330
1B
100
AcDbEntity
  8
Edge.Cuts
  6
CONTINUOUS
100
AcDbLine
 10
4.4662694488188972
 20
-3.9771547244094489
 30
0
 11
4.4690461417322833
 21
-3.9857005511811021
 31
0
  0
LINE
  5
54
330
1B
100
AcDbEntity
  8
Edge.Cuts
  6
CONTINUOUS
100
AcDbLine
 10
4.4690461417322833
 20
-3.9857005511811021
 30
0
 11
4.4731255511811021
 21
-3.993706811023622
 31
0
  0
LINE
  5
55
330
1B
100
AcDbEntity
  8
Edge.Cuts
  6
CONTINUOUS
100
AcDbLine
 10
4.4731255511811021
 20
-3.993706811023622
 30
0
 11
4.4784071653543309
 21
-4.0009763385826771
 31
0
  0
LINE
  5
56
330
1B
100
AcDbEntity
  8
Edge.Cuts
  6
CONTINUOUS
100
AcDbLine
 10
4.4784071653543309
 20
-4.0009763385826771
 30
0
 11
4.4847609448818897
 21
-4.0073301181102359
 31
0
  0
LINE
  5
57
330
1B
100
AcDbEntity
  8
Edge.Cuts
  6
CONTINUOUS
100
AcDbLine
 10
4.4847609448818897
 20
-4.0073301181102359
 30
0
 11
4.4920304724409448
 21
-4.0126117322834647
 31
0
  0
LINE
  5
58
330
1B
100
AcDbEntity
  8
Edge.Cuts
  6
CONTINUOUS
100
AcDbLine
 10
4.4920304724409448
 20
-4.0126117322834647
 30
0
 11
4.5000367322834647
 21
-4.0166911417322835
 31
0
  0
LINE
  5
59
330
1B
100
AcDbEntity
  8
Edge.Cuts
  6
CONTINUOUS
100
AcDbLine
 10
4.5000367322834647
 20
-4.0166911417322835
 30
0
 11
4.5085825590551183
 21
-4.0194678346456696
 31
0
  0
LINE
  5
5A
330
1B
100
AcDbEntity
  8
Edge.Cuts
  6
CONTINUOUS
100
AcDbLine
 10
4.5085825590551183
 20
-4.0194678346456696
 30
0
 11
4.5174575984251968
 21
-4.0208735039370076
 31
0
  0
LINE
  5
5B
330
1B
100
AcDbEntity
  8
Edge.Cuts
  6
CONTINUOUS
100
AcDbLine
 10
4.5174575984251968
 20
-4.0208735039370076
 30
0
 11
4.5264431889763781
 21
-4.0208735039370076
 31
0
  0
LINE
  5
5C
330
1B
100
AcDbEntity
  8
Edge.Cuts
  6
CONTINUOUS
100
AcDbLine
 10
4.5264431889763781
 20
-4.0208735039370076
 30
0
 11
4.5353182283464566
 21
-4.0194678346456696
 31
0
  0
LINE
  5
5D
330
1B
100
AcDbEntity
  8
Edge.Cuts
  6
CONTINUOUS
100
AcDbLine
 10
4.5353182283464566
 20
-4.0194678346456696
 30
0
 11
4.5438640551181102
 21
-4.0166911417322835
 31
0
  0
LINE
  5
5E
330
1B
100
AcDbEntity
  8
Edge.Cuts
  6
CONTINUOUS
100
AcDbLine
 10
4.5438640551181102
 20
-4.0166911417322835
 30
0
 11
4.5518703149606301
 21
-4.0126117322834647
 31
0
  0
LINE
  5
5F
330
1B
100
AcDbEntity
  8
Edge.Cuts
  6
CONTINUOUS
100
AcDbLine
 10
4.5518703149606301
 20
-4.0126117322834647
 30
0
 11
4.5591398425196852
 21
-4.0073301181102359
 31
0
  0
LINE
  5
60
330
1B
100
AcDbEntity
  8
Edge.Cuts
  6
CONTINUOUS
100
AcDbLine
 10
4.5591398425196852
 20
-4.0073301181102359
 30
0
 11
4.565493622047244
 21
-4.0009763385826771
 31
0
  0
LINE
  5
61
330
1B
100
AcDbEntity
  8
Edge.Cuts
  6
CONTINUOUS
100
AcDbLine
 10
4.565493622047244
 20
-4.0009763385826771
 30
0
 11
4.5707752362204728
 21
-3.993706811023622
 31
0
  0
LINE
  5
62
330
1B
100
AcDbEntity
  8
Edge.Cuts
  6
CONTINUOUS
100
AcDbLine
 10
4.5707752362204728
 20
-3.993706811023622
 30
0
 11
4.5748546456692916
 21
-3.9857005511811021
 31
0
  0
LINE
  5
63
330
1B
100
AcDbEntity
  8
Edge.Cuts
  6
CONTINUOUS
100
AcDbLine
 10
4.5748546456692916
 20
-3.9857005511811021
 30
0
 11
4.5776313385826768
 21
-3.9771547244094489
 31
0
  0
LINE
  5
64
330
1B
100
AcDbEntity
  8
Edge.Cuts
  6
CONTINUOUS
100
AcDbLine
 10
4.5776313385826768
 20
-3.9771547244094489
 30
0
 11
4.5790370078740157
 21
-3.96827968503937
 31
0
  0
LINE
  5
65
330
1B
100
AcDbEntity
  8
Edge.Cuts
  6
CONTINUOUS
100
AcDbLine
 10
4.5790370078740157
 20
-3.96827968503937
 30
0
 11
4.5790370078740157
 21
-3.9592940944881887
 31
0
  0
LINE
  5
66
330
1B
100
AcDbEntity
  8
Edge.Cuts
  6
CONTINUOUS
100
AcDbLine
 10
4.5790370078740157
 20
-3.9592940944881887
 30
0
 11
4.5776313385826768
 21
-3.9504190551181102
 31
0
  0
LINE
  5
67
330
1B
100
AcDbEntity
  8
Edge.Cuts
  6
CONTINUOUS
100
AcDbLine
 10
4.5776313385826768
 20
-3.9504190551181102
 30
0
 11
4.5748546456692916
 21
-3.9418732283464566
 31
0
  0
LINE
  5
68
330
1B
100
AcDbEntity
  8
Edge.Cuts
  6
CONTINUOUS
100
AcDbLine
 10
4.5748546456692916
 20
-3.9418732283464566
 30
0
 11
4.5707752362204728
 21
-3.9338669685039371
 31
0
  0
LINE
  5
69
330
1B
100
AcDbEntity
  8
Edge.Cuts
  6
CONTINUOUS
100
AcDbLine
 10
4.5707752362204728
 20
-3.9338669685039371
 30
0
 11
4.565493622047244
 21
-3.9265974409448816
 31
0
  0
LINE
  5
6A
330
1B
100
AcDbEntity
  8
Edge.Cuts
  6
CONTINUOUS
100
AcDbLine
 10
4.565493622047244
 20
-3.9265974409448816
 30
0
 11
4.5591398425196852
 21
-3.9202436614173228
 31
0
  0
LINE
  5
6B
330
1B
100
AcDbEntity
  8
Edge.Cuts
  6
CONTINUOUS
100
AcDbLine
 10
4.5591398425196852
 20
-3.9202436614173228
 30
0
 11
4.5518703149606301
 21
-3.9149620472440945
 31
0
  0
LINE
  5
6C
330
1B
100
AcDbEntity
  8
Edge.Cuts
  6
CONTINUOUS
100
AcDbLine
 10
4.5518703149606301
 20
-3.9149620472440945
 30
0
 11
4.5438640551181102
 21
-3.9108826377952757
 31
0
  0
LINE
  5
6D
330
1B
100
AcDbEntity
  8
Edge.Cuts
  6
CONTINUOUS
100
AcDbLine
 10
4.5438640551181102
 20
-3.9108826377952757
 30
0
 11
4.5353182283464566
 21
-3.9081059448818896
 31
0
  0
LINE
  5
6E
330
1B
100
AcDbEntity
  8
Edge.Cuts
  6
CONTINUOUS
100
AcDbLine
 10
4.5353182283464566
 20
-3.9081059448818896
 30
0
 11
4.5264431889763781
 21
-3.9067002755905511
 31
0
  0
LINE
  5
6F
330
1B
100
AcDbEntity
  8
Edge.Cuts
  6
CONTINUOUS
100
AcDbLine
 10
4.5264431889763781
 20
-3.9067002755905511
 30
0
 11
4.5174575984251968
 21
-3.9067002755905511
 31
0
  0
LINE
  5
70
330
1B
100
AcDbEntity
  8
Edge.Cuts
  6
CONTINUOUS
100
AcDbLine
 10
4.5174575984251968
 20
-3.9067002755905511
 30
0
 11
4.5085825590551183
 21
-3.9081059448818896
 31
0
  0
LINE
  5
71
330
1B
100
AcDbEntity
  8
Edge.Cuts
  6
CONTINUOUS
100
AcDbLine
 10
4.5085825590551183
 20
-3.9081059448818896
 30
0
 11
4.5000367322834647
 21
-3.9108826377952757
 31
0
  0
LINE
  5
72
330
1B
100
AcDbEntity
  8
Edge.Cuts
  6
CONTINUOUS
100
AcDbLine
 10
4.5000367322834647
 20
-3.9108826377952757
 30
0
 11
4.4920304724409448
 21
-3.9149620472440945
 31
0
  0
LINE
  5
73
330
1B
100
AcDbEntity
  8
Edge.Cuts
  6
CONTINUOUS
100
AcDbLine
 10
4.4920304724409448
 20
-3.9149620472440945
 30
0
 11
4.4847609448818897
 21
-3.9202436614173228
 31
0
  0
LINE
  5
74
330
1B
100
AcDbEntity
  8
Edge.Cuts
  6
CONTINUOUS
100
AcDbLine
 10
4.4847609448818897
 20
-3.9202436614173228
 30
0
 11
4.4784071653543309
 21
-3.9265974409448816
 31
0
  0
LINE
  5
75
330
1B
100
AcDbEntity
  8
Edge.Cuts
  6
CONTINUOUS
100
AcDbLine
 10
4.4784071653543309
 20
-3.9265974409448816
 30
0
 11
4.4731255511811021
 21
-3.9338669685039371
 31
0
  0
LINE
  5
76
330
1B
100
AcDbEntity
  8
Edge.Cuts
  6
CONTINUOUS
100
AcDbLine
 10
4.4731255511811021
 20
-3.9338669685039371
 30
0
 11
4.4690461417322833
 21
-3.9418732283464566
 31
0
  0
LINE
  5
77
330
1B
100
AcDbEntity
  8
Edge.Cuts
  6
CONTINUOUS
100
AcDbLine
 10
4.4690461417322833
 20
-3.9418732283464566
 30
0
 11
4.4662694488188972
 21
-3.9504190551181102
 31
0
  0
LINE
  5
78
330
1B
100
AcDbEntity
  8
Edge.Cuts
  6
CONTINUOUS
100
AcDbLine
 10
4.4662694488188972
 20
-3.9504190551181102
 30
0
 11
4.4648637795275592
 21
-3.9592940944881887
 31
0
  0
LINE
  5
79
330
1B
100
AcDbEntity
  8
Edge.Cuts
  6
CONTINUOUS
100
AcDbLine
 10
4.4648637795275592
 20
-3.9592940944881887
 30
0
 11
4.4648637795275592
 21
-3.96827968503937
 31
0
  0
LINE
  5
7A
330
1B
100
AcDbEntity
  8
Edge.Cuts
  6
CONTINUOUS
100
AcDbLine
 10
5.4417078740157478
 20
-3.9044493700787402
 30
0
 11
5.450814921259842
 21
-3.9074084251968504
 31
0
  0
LINE
  5
7B
330
1B
100
AcDbEntity
  8
Edge.Cuts
  6
CONTINUOUS
100
AcDbLine
 10
5.450814921259842
 20
-3.9074084251968504
 30
0
 11
5.4593469685039366
 21
-3.9117557086614174
 31
0
  0
LINE
  5
7C
330
1B
100
AcDbEntity
  8
Edge.Cuts
  6
CONTINUOUS
100
AcDbLine
 10
5.4593469685039366
 20
-3.9117557086614174
 30
0
 11
5.4670938582677167
 21
-3.9173841732283465
 31
0
  0
LINE
  5
7D
330
1B
100
AcDbEntity
  8
Edge.Cuts
  6
CONTINUOUS
100
AcDbLine
 10
5.4670938582677167
 20
-3.9173841732283465
 30
0
 11
5.4738649212598425
 21
-3.9241552362204724
 31
0
  0
LINE
  5
7E
330
1B
100
AcDbEntity
  8
Edge.Cuts
  6
CONTINUOUS
100
AcDbLine
 10
5.4738649212598425
 20
-3.9241552362204724
 30
0
 11
5.4794933858267711
 21
-3.9319021259842519
 31
0
  0
LINE
  5
7F
330
1B
100
AcDbEntity
  8
Edge.Cuts
  6
CONTINUOUS
100
AcDbLine
 10
5.4794933858267711
 20
-3.9319021259842519
 30
0
 11
5.4838406692913386
 21
-3.9404341732283465
 31
0
  0
LINE
  5
80
330
1B
100
AcDbEntity
  8
Edge.Cuts
  6
CONTINUOUS
100
AcDbLine
 10
5.4838406692913386
 20
-3.9404341732283465
 30
0
 11
5.4867997244094484
 21
-3.9495412204724407
 31
0
  0
LINE
  5
81
330
1B
100
AcDbEntity
  8
Edge.Cuts
  6
CONTINUOUS
100
AcDbLine
 10
5.4867997244094484
 20
-3.9495412204724407
 30
0
 11
5.488297716535433
 21
-3.9589990157480313
 31
0
  0
LINE
  5
82
330
1B
100
AcDbEntity
  8
Edge.Cuts
  6
CONTINUOUS
100
AcDbLine
 10
5.488297716535433
 20
-3.9589990157480313
 30
0
 11
5.488297716535433
 21
-3.9685747637795274
 31
0
  0
LINE
  5
83
330
1B
100
AcDbEntity
  8
Edge.Cuts
  6
CONTINUOUS
100
AcDbLine
 10
5.488297716535433
 20
-3.9685747637795274
 30
0
 11
5.4867997244094484
 21
-3.978032559055118
 31
0
  0
LINE
  5
84
330
1B
100
AcDbEntity
  8
Edge.Cuts
  6
CONTINUOUS
100
AcDbLine
 10
5.4867997244094484
 20
-3.978032559055118
 30
0
 11
5.4838406692913386
 21
-3.9871396062992126
 31
0
  0
LINE
  5
85
330
1B
100
AcDbEntity
  8
Edge.Cuts
  6
CONTINUOUS
100
AcDbLine
 10
5.4838406692913386
 20
-3.9871396062992126
 30
0
 11
5.4794933858267711
 21
-3.9956716535433068
 31
0
  0
LINE
  5
86
330
1B
100
AcDbEntity
  8
Edge.Cuts
  6
CONTINUOUS
100
AcDbLine
 10
5.4794933858267711
 20
-3.9956716535433068
 30
0
 11
5.4738649212598425
 21
-4.0034185433070864
 31
0
  0
LINE
  5
87
330
1B
100
AcDbEntity
  8
Edge.Cuts
  6
CONTINUOUS
100
AcDbLine
 10
5.4738649212598425
 20
-4.0034185433070864
 30
0
 11
5.4670938582677167
 21
-4.0101896062992122
 31
0
  0
LINE
  5
88
330
1B
100
AcDbEntity
  8
Edge.Cuts
  6
CONTINUOUS
100
AcDbLine
 10
5.4670938582677167
 20
-4.0101896062992122
 30
0
 11
5.4593469685039366
 21
-4.0158180708661417
 31
0
  0
LINE
  5
89
330
1B
100
AcDbEntity
  8
Edge.Cuts
  6
CONTINUOUS
100
AcDbLine
 10
5.4593469685039366
 20
-4.0158180708661417
 30
0
 11
5.450814921259842
 21
-4.0201653543307083
 31
0
  0
LINE
  5
8A
330
1B
100
AcDbEntity
  8
Edge.Cuts
  6
CONTINUOUS
100
AcDbLine
 10
5.450814921259842
 20
-4.0201653543307083
 30
0
 11
5.4417078740157478
 21
-4.023124409448819
 31
0
  0
LINE
  5
8B
330
1B
100
AcDbEntity
  8
Edge.Cuts
  6
CONTINUOUS
100
AcDbLine
 10
5.4417078740157478
 20
-4.023124409448819
 30
0
 11
5.4322500787401573
 21
-4.0246224015748027
 31
0
  0
LINE
  5
8C
330
1B
100
AcDbEntity
  8
Edge.Cuts
  6
CONTINUOUS
100
AcDbLine
 10
5.4322500787401573
 20
-4.0246224015748027
 30
0
 11
5.4226743307086611
 21
-4.0246224015748027
 31
0
  0
LINE
  5
8D
330
1B
100
AcDbEntity
  8
Edge.Cuts
  6
CONTINUOUS
100
AcDbLine
 10
5.4226743307086611
 20
-4.0246224015748027
 30
0
 11
5.4132165354330706
 21
-4.023124409448819
 31
0
  0
LINE
  5
8E
330
1B
100
AcDbEntity
  8
Edge.Cuts
  6
CONTINUOUS
100
AcDbLine
 10
5.4132165354330706
 20
-4.023124409448819
 30
0
 11
5.4041094881889764
 21
-4.0201653543307083
 31
0
  0
LINE
  5
8F
330
1B
100
AcDbEntity
  8
Edge.Cuts
  6
CONTINUOUS
100
AcDbLine
 10
5.4041094881889764
 20
-4.0201653543307083
 30
0
 11
5.3955774409448818
 21
-4.0158180708661417
 31
0
  0
LINE
  5
90
330
1B
100
AcDbEntity
  8
Edge.Cuts
  6
CONTINUOUS
100
AcDbLine
 10
5.3955774409448818
 20
-4.0158180708661417
 30
0
 11
5.3878305511811027
 21
-4.0101896062992122
 31
0
  0
LINE
  5
91
330
1B
100
AcDbEntity
  8
Edge.Cuts
  6
CONTINUOUS
100
AcDbLine
 10
5.3878305511811027
 20
-4.0101896062992122
 30
0
 11
5.3810594881889759
 21
-4.0034185433070864
 31
0
  0
LINE
  5
92
330
1B
100
AcDbEntity
  8
Edge.Cuts
  6
CONTINUOUS
100
AcDbLine
 10
5.3810594881889759
 20
-4.0034185433070864
 30
0
 11
5.3754310236220473
 21
-3.9956716535433068
 31
0
  0
LINE
  5
93
330
1B
100
AcDbEntity
  8
Edge.Cuts
  6
CONTINUOUS
100
AcDbLine
 10
5.3754310236220473
 20
-3.9956716535433068
 30
0
 11
5.3710837401574798
 21
-3.9871396062992126
 31
0
  0
LINE
  5
94
330
1B
100
AcDbEntity
  8
Edge.Cuts
  6
CONTINUOUS
100
AcDbLine
 10
5.3710837401574798
 20
-3.9871396062992126
 30
0
 11
5.36812468503937
 21
-3.978032559055118
 31
0
  0
LINE
  5
95
330
1B
100
AcDbEntity
  8
Edge.Cuts
  6
CONTINUOUS
100
AcDbLine
 10
5.36812468503937
 20
-3.978032559055118
 30
0
 11
5.3666266929133855
 21
-3.9685747637795274
 31
0
  0
LINE
  5
96
330
1B
100
AcDbEntity
  8
Edge.Cuts
  6
CONTINUOUS
100
AcDbLine
 10
5.3666266929133855
 20
-3.9685747637795274
 30
0
 11
5.3666266929133855
 21
-3.9592940944881887
 31
0
  0
LINE
  5
97
330
1B
100
AcDbEntity
  8
Edge.Cuts
  6
CONTINUOUS
100
AcDbLine
 10
5.3666266929133855
 20
-3.9592940944881887
 30
0
 11
5.3666266929133855
 21
-3.9589990157480313
 31
0
  0
LINE
  5
98
330
1B
100
AcDbEntity
  8
Edge.Cuts
  6
CONTINUOUS
100
AcDbLine
 10
5.3666266929133855
 20
-3.9589990157480313
 30
0
 11
5.36812468503937
 21
-3.9495412204724407
 31
0
  0
LINE
  5
99
330
1B
100
AcDbEntity
  8
Edge.Cuts
  6
CONTINUOUS
100
AcDbLine
 10
5.36812468503937
 20
-3.9495412204724407
 30
0
 11
5.3710837401574798
 21
-3.9404341732283465
 31
0
  0
LINE
  5
9A
330
1B
100
AcDbEntity
  8
Edge.Cuts
  6
CONTINUOUS
100
AcDbLine
 10
5.3710837401574798
 20
-3.9404341732283465
 30
0
 11
5.3754310236220473
 21
-3.9319021259842519
 31
0
  0
LINE
  5
9B
330
1B
100
AcDbEntity
  8
Edge.Cuts
  6
CONTINUOUS
100
AcDbLine
 10
5.3754310236220473
 20
-3.9319021259842519
 30
0
 11
5.3810594881889759
 21
-3.9241552362204724
 31
0
  0
LINE
  5
9C
330
1B
100
AcDbEntity
  8
Edge.Cuts
  6
CONTINUOUS
100
AcDbLine
 10
5.3810594881889759
 20
-3.9241552362204724
 30
0
 11
5.3878305511811027
 21
-3.9173841732283465
 31
0
  0
LINE
  5
9D
330
1B
100
AcDbEntity
  8
Edge.Cuts
  6
CONTINUOUS
100
AcDbLine
 10
5.3878305511811027
 20
-3.9173841732283465
 30
0
 11
5.3955774409448818
 21
-3.9117557086614174
 31
0
  0
LINE
  5
9E
330
1B
100
AcDbEntity
  8
Edge.Cuts
  6
CONTINUOUS
100
AcDbLine
 10
5.3955774409448818
 20
-3.9117557086614174
 30
0
 11
5.4041094881889764
 21
-3.9074084251968504
 31
0
  0
LINE
  5
9F
330
1B
100
AcDbEntity
  8
Edge.Cuts
  6
CONTINUOUS
100
AcDbLine
 10
5.4041094881889764
 20
-3.9074084251968504
 30
0
 11
5.4132165354330706
 21
-3.9044493700787402
 31
0
  0
LINE
  5
A0
330
1B
100
AcDbEntity
  8
Edge.Cuts
  6
CONTINUOUS
100
AcDbLine
 10
5.4132165354330706
 20
-3.9044493700787402
 30
0
 11
5.4226743307086611
 21
-3.9029513779527556
 31
0
  0
LINE
  5
A1
330
1B
100
AcDbEntity
  8
Edge.Cuts
  6
CONTINUOUS
100
AcDbLine
 10
5.4226743307086611
 20
-3.9029513779527556
 30
0
 11
5.4322500787401573
 21
-3.9029513779527556
 31
0
  0
LINE
  5
A2
330
1B
100
AcDbEntity
  8
Edge.Cuts
  6
CONTINUOUS
100
AcDbLine
 10
5.4322500787401573
 20
-3.9029513779527556
 30
0
 11
5.4417078740157478
 21
-3.9044493700787402
 31
0
  0
LINE
  5
A3
330
1B
100
AcDbEntity
  8
Edge.Cuts
  6
CONTINUOUS
100
AcDbLine
 10
5.3703755905511814
 20
-3.96827968503937
 30
0
 11
5.3717812598425194
 21
-3.9771547244094489
 31
0
  0
LINE
  5
A4
330
1B
100
AcDbEntity
  8
Edge.Cuts
  6
CONTINUOUS
100
AcDbLine
 10
5.3717812598425194
 20
-3.9771547244094489
 30
0
 11
5.3745579527559055
 21
-3.9857005511811021
 31
0
  0
LINE
  5
A5
330
1B
100
AcDbEntity
  8
Edge.Cuts
  6
CONTINUOUS
100
AcDbLine
 10
5.3745579527559055
 20
-3.9857005511811021
 30
0
 11
5.3786373622047243
 21
-3.993706811023622
 31
0
  0
LINE
  5
A6
330
1B
100
AcDbEntity
  8
Edge.Cuts
  6
CONTINUOUS
100
AcDbLine
 10
5.3786373622047243
 20
-3.993706811023622
 30
0
 11
5.3839189763779522
 21
-4.0009763385826771
 31
0
  0
LINE
  5
A7
330
1B
100
AcDbEntity
  8
Edge.Cuts
  6
CONTINUOUS
100
AcDbLine
 10
5.3839189763779522
 20
-4.0009763385826771
 30
0
 11
5.3902727559055119
 21
-4.0073301181102359
 31
0
  0
LINE
  5
A8
330
1B
100
AcDbEntity
  8
Edge.Cuts
  6
CONTINUOUS
100
AcDbLine
 10
5.3902727559055119
 20
-4.0073301181102359
 30
0
 11
5.397542283464567
 21
-4.0126117322834647
 31
0
  0
LINE
  5
A9
330
1B
100
AcDbEntity
  8
Edge.Cuts
  6
CONTINUOUS
100
AcDbLine
 10
5.397542283464567
 20
-4.0126117322834647
 30
0
 11
5.4055485433070869
 21
-4.0166911417322835
 31
0
  0
LINE
  5
AA
330
1B
100
AcDbEntity
  8
Edge.Cuts
  6
CONTINUOUS
100
AcDbLine
 10
5.4055485433070869
 20
-4.0166911417322835
 30
0
 11
5.4140943700787396
 21
-4.0194678346456696
 31
0
  0
LINE
  5
AB
330
1B
100
AcDbEntity
  8
Edge.Cuts
  6
CONTINUOUS
100
AcDbLine
 10
5.4140943700787396
 20
-4.0194678346456696
 30
0
 11
5.422969409448819
 21
-4.0208735039370076
 31
0
  0
LINE
  5
AC
330
1B
100
AcDbEntity
  8
Edge.Cuts
  6
CONTINUOUS
100
AcDbLine
 10
5.422969409448819
 20
-4.0208735039370076
 30
0
 11
5.4319550000000003
 21
-4.0208735039370076
 31
0
  0
LINE
  5
AD
330
1B
100
AcDbEntity
  8
Edge.Cuts
  6
CONTINUOUS
100
AcDbLine
 10
5.4319550000000003
 20
-4.0208735039370076
 30
0
 11
5.4408300393700788
 21
-4.0194678346456696
 31
0
  0
LINE
  5
AE
330
1B
100
AcDbEntity
  8
Edge.Cuts
  6
CONTINUOUS
100
AcDbLine
 10
5.4408300393700788
 20
-4.0194678346456696
 30
0
 11
5.4493758661417324
 21
-4.0166911417322835
 31
0
  0
LINE
  5
AF
330
1B
100
AcDbEntity
  8
Edge.Cuts
  6
CONTINUOUS
100
AcDbLine
 10
5.4493758661417324
 20
-4.0166911417322835
 30
0
 11
5.4573821259842514
 21
-4.0126117322834647
 31
0
  0
LINE
  5
B0
330
1B
100
AcDbEntity
  8
Edge.Cuts
  6
CONTINUOUS
100
AcDbLine
 10
5.4573821259842514
 20
-4.0126117322834647
 30
0
 11
5.4646516535433074
 21
-4.0073301181102359
 31
0
  0
LINE
  5
B1
330
1B
100
AcDbEntity
  8
Edge.Cuts
  6
CONTINUOUS
100
AcDbLine
 10
5.4646516535433074
 20
-4.0073301181102359
 30
0
 11
5.4710054330708662
 21
-4.0009763385826771
 31
0
  0
LINE
  5
B2
330
1B
100
AcDbEntity
  8
Edge.Cuts
  6
CONTINUOUS
100
AcDbLine
 10
5.4710054330708662
 20
-4.0009763385826771
 30
0
 11
5.4762870472440941
 21
-3.993706811023622
 31
0
  0
LINE
  5
B3
330
1B
100
AcDbEntity
  8
Edge.Cuts
  6
CONTINUOUS
100
AcDbLine
 10
5.4762870472440941
 20
-3.993706811023622
 30
0
 11
5.4803664566929129
 21
-3.9857005511811021
 31
0
  0
LINE
  5
B4
330
1B
100
AcDbEntity
  8
Edge.Cuts
  6
CONTINUOUS
100
AcDbLine
 10
5.4803664566929129
 20
-3.9857005511811021
 30
0
 11
5.483143149606299
 21
-3.9771547244094489
 31
0
  0
LINE
  5
B5
330
1B
100
AcDbEntity
  8
Edge.Cuts
  6
CONTINUOUS
100
AcDbLine
 10
5.483143149606299
 20
-3.9771547244094489
 30
0
 11
5.4845488188976379
 21
-3.96827968503937
 31
0
  0
LINE
  5
B6
330
1B
100
AcDbEntity
  8
Edge.Cuts
  6
CONTINUOUS
100
AcDbLine
 10
5.4845488188976379
 20
-3.96827968503937
 30
0
 11
5.4845488188976379
 21
-3.9592940944881887
 31
0
  0
LINE
  5
B7
330
1B
100
AcDbEntity
  8
Edge.Cuts
  6
CONTINUOUS
100
AcDbLine
 10
5.4845488188976379
 20
-3.9592940944881887
 30
0
 11
5.483143149606299
 21
-3.9504190551181102
 31
0
  0
LINE
  5
B8
330
1B
100
AcDbEntity
  8
Edge.Cuts
  6
CONTINUOUS
100
AcDbLine
 10
5.483143149606299
 20
-3.9504190551181102
 30
0
 11
5.4803664566929129
 21
-3.9418732283464566
 31
0
  0
LINE
  5
B9
330
1B
100
AcDbEntity
  8
Edge.Cuts
  6
CONTINUOUS
100
AcDbLine
 10
5.4803664566929129
 20
-3.9418732283464566
 30
0
 11
5.4762870472440941
 21
-3.9338669685039371
 31
0
  0
LINE
  5
BA
330
1B
100
AcDbEntity
  8
Edge.Cuts
  6
CONTINUOUS
100
AcDbLine
 10
5.4762870472440941
 20
-3.9338669685039371
 30
0
 11
5.4710054330708662
 21
-3.9265974409448816
 31
0
  0
LINE
  5
BB
330
1B
100
AcDbEntity
  8
Edge.Cuts
  6
CONTINUOUS
100
AcDbLine
 10
5.4710054330708662
 20
-3.9265974409448816
 30
0
 11
5.4646516535433074
 21
-3.9202436614173228
 31
0
  0
LINE
  5
BC
330
1B
100
AcDbEntity
  8
Edge.Cuts
  6
CONTINUOUS
100
AcDbLine
 10
5.4646516535433074
 20
-3.9202436614173228
 30
0
 11
5.4573821259842514
 21
-3.9149620472440945
 31
0
  0
LINE
  5
BD
330
1B
100
AcDbEntity
  8
Edge.Cuts
  6
CONTINUOUS
100
AcDbLine
 10
5.4573821259842514
 20
-3.9149620472440945
 30
0
 11
5.4493758661417324
 21
-3.9108826377952757
 31
0
  0
LINE
  5
BE
330
1B
100
AcDbEntity
  8
Edge.Cuts
  6
CONTINUOUS
100
AcDbLine
 10
5.4493758661417324
 20
-3.9108826377952757
 30
0
 11
5.4408300393700788
 21
-3.9081059448818896
 31
0
  0
LINE
  5
BF
330
1B
100
AcDbEntity
  8
Edge.Cuts
  6
CONTINUOUS
100
AcDbLine
 10
5.4408300393700788
 20
-3.9081059448818896
 30
0
 11
5.4319550000000003
 21
-3.9067002755905511
 31
0
  0
LINE
  5
C0
330
1B
100
AcDbEntity
  8
Edge.Cuts
  6
CONTINUOUS
100
AcDbLine
 10
5.4319550000000003
 20
-3.9067002755905511
 30
0
 11
5.422969409448819
 21
-3.9067002755905511
 31
0
  0
LINE
  5
C1
330
1B
100
AcDbEntity
  8
Edge.Cuts
  6
CONTINUOUS
100
AcDbLine
 10
5.422969409448819
 20
-3.9067002755905511
 30
0
 11
5.4140943700787396
 21
-3.9081059448818896
 31
0
  0
LINE
  5
C2
330
1B
100
AcDbEntity
  8
Edge.Cuts
  6
CONTINUOUS
100
AcDbLine
 10
5.4140943700787396
 20
-3.9081059448818896
 30
0
 11
5.4055485433070869
 21
-3.9108826377952757
 31
0
  0
LINE
  5
C3
330
1B
100
AcDbEntity
  8
Edge.Cuts
  6
CONTINUOUS
100
AcDbLine
 10
5.4055485433070869
 20
-3.9108826377952757
 30
0
 11
5.397542283464567
 21
-3.9149620472440945
 31
0
  0
LINE
  5
C4
330
1B
100
AcDbEntity
  8
Edge.Cuts
  6
CONTINUOUS
100
AcDbLine
 10
5.397542283464567
 20
-3.9149620472440945
 30
0
 11
5.3902727559055119
 21
-3.9202436614173228
 31
0
  0
LINE
  5
C5
330
1B
100
AcDbEntity
  8
Edge.Cuts
  6
CONTINUOUS
100
AcDbLine
 10
5.3902727559055119
 20
-3.9202436614173228
 30
0
 11
5.3839189763779522
 21
-3.9265974409448816
 31
0
  0
LINE
  5
C6
330
1B
100
AcDbEntity
  8
Edge.Cuts
  6
CONTINUOUS
100
AcDbLine
 10
5.3839189763779522
 20
-3.9265974409448816
 30
0
 11
5.3786373622047243
 21
-3.9338669685039371
 31
0
  0
LINE
  5
C7
330
1B
100
AcDbEntity
  8
Edge.Cuts
  6
CONTINUOUS
100
AcDbLine
 10
5.3786373622047243
 20
-3.9338669685039371
 30
0
 11
5.3745579527559055
 21
-3.9418732283464566
 31
0
  0
LINE
  5
C8
330
1B
100
AcDbEntity
  8
Edge.Cuts
  6
CONTINUOUS
100
AcDbLine
 10
5.3745579527559055
 20
-3.9418732283464566
 30
0
 11
5.3717812598425194
 21
-3.9504190551181102
 31
0
  0
LINE
  5
C9
330
1B
100
AcDbEntity
  8
Edge.Cuts
  6
CONTINUOUS
100
AcDbLine
 10
5.3717812598425194
 20
-3.9504190551181102
 30
0
 11
5.3703755905511814
 21
-3.9592940944881887
 31
0
  0
LINE
  5
CA
330
1B
100
AcDbEntity
  8
Edge.Cuts
  6
CONTINUOUS
100
AcDbLine
 10
5.3703755905511814
 20
-3.9592940944881887
 30
0
 11
5.3703755905511814
 21
-3.96827968503937
 31
0
  0
LINE
  5
CB
330
1B
100
AcDbEntity
  8
Edge.Cuts
  6
CONTINUOUS
100
AcDbLine
 10
4.5361960629921256
 20
-2.0934257480314962
 30
0
 11
4.5453031102362207
 21
-2.0963848031496064
 31
0
  0
LINE
  5
CC
330
1B
100
AcDbEntity
  8
Edge.Cuts
  6
CONTINUOUS
100
AcDbLine
 10
4.5453031102362207
 20
-2.0963848031496064
 30
0
 11
4.5538351574803144
 21
-2.100732086614173
 31
0
  0
LINE
  5
CD
330
1B
100
AcDbEntity
  8
Edge.Cuts
  6
CONTINUOUS
100
AcDbLine
 10
4.5538351574803144
 20
-2.100732086614173
 30
0
 11
4.5615820472440944
 21
-2.1063605511811021
 31
0
  0
LINE
  5
CE
330
1B
100
AcDbEntity
  8
Edge.Cuts
  6
CONTINUOUS
100
AcDbLine
 10
4.5615820472440944
 20
-2.1063605511811021
 30
0
 11
4.5683531102362203
 21
-2.1131316141732284
 31
0
  0
LINE
  5
CF
330
1B
100
AcDbEntity
  8
Edge.Cuts
  6
CONTINUOUS
100
AcDbLine
 10
4.5683531102362203
 20
-2.1131316141732284
 30
0
 11
4.5739815748031498
 21
-2.1208785039370079
 31
0
  0
LINE
  5
D0
330
1B
100
AcDbEntity
  8
Edge.Cuts
  6
CONTINUOUS
100
AcDbLine
 10
4.5739815748031498
 20
-2.1208785039370079
 30
0
 11
4.5783288582677164
 21
-2.1294105511811021
 31
0
  0
LINE
  5
D1
330
1B
100
AcDbEntity
  8
Edge.Cuts
  6
CONTINUOUS
100
AcDbLine
 10
4.5783288582677164
 20
-2.1294105511811021
 30
0
 11
4.5812879133858271
 21
-2.1385175984251967
 31
0
  0
LINE
  5
D2
330
1B
100
AcDbEntity
  8
Edge.Cuts
  6
CONTINUOUS
100
AcDbLine
 10
4.5812879133858271
 20
-2.1385175984251967
 30
0
 11
4.5827859055118108
 21
-2.1479753937007873
 31
0
  0
LINE
  5
D3
330
1B
100
AcDbEntity
  8
Edge.Cuts
  6
CONTINUOUS
100
AcDbLine
 10
4.5827859055118108
 20
-2.1479753937007873
 30
0
 11
4.5827859055118108
 21
-2.1575511417322835
 31
0
  0
LINE
  5
D4
330
1B
100
AcDbEntity
  8
Edge.Cuts
  6
CONTINUOUS
100
AcDbLine
 10
4.5827859055118108
 20
-2.1575511417322835
 30
0
 11
4.5812879133858271
 21
-2.167008937007874
 31
0
  0
LINE
  5
D5
330
1B
100
AcDbEntity
  8
Edge.Cuts
  6
CONTINUOUS
100
AcDbLine
 10
4.5812879133858271
 20
-2.167008937007874
 30
0
 11
4.5783288582677164
 21
-2.1761159842519686
 31
0
  0
LINE
  5
D6
330
1B
100
AcDbEntity
  8
Edge.Cuts
  6
CONTINUOUS
100
AcDbLine
 10
4.5783288582677164
 20
-2.1761159842519686
 30
0
 11
4.5739815748031498
 21
-2.1846480314960628
 31
0
  0
LINE
  5
D7
330
1B
100
AcDbEntity
  8
Edge.Cuts
  6
CONTINUOUS
100
AcDbLine
 10
4.5739815748031498
 20
-2.1846480314960628
 30
0
 11
4.5683531102362203
 21
-2.1923949212598424
 31
0
  0
LINE
  5
D8
330
1B
100
AcDbEntity
  8
Edge.Cuts
  6
CONTINUOUS
100
AcDbLine
 10
4.5683531102362203
 20
-2.1923949212598424
 30
0
 11
4.5615820472440944
 21
-2.1991659842519686
 31
0
  0
LINE
  5
D9
330
1B
100
AcDbEntity
  8
Edge.Cuts
  6
CONTINUOUS
100
AcDbLine
 10
4.5615820472440944
 20
-2.1991659842519686
 30
0
 11
4.5538351574803144
 21
-2.2047944488188977
 31
0
  0
LINE
  5
DA
330
1B
100
AcDbEntity
  8
Edge.Cuts
  6
CONTINUOUS
100
AcDbLine
 10
4.5538351574803144
 20
-2.2047944488188977
 30
0
 11
4.5453031102362207
 21
-2.2091417322834643
 31
0
  0
LINE
  5
DB
330
1B
100
AcDbEntity
  8
Edge.Cuts
  6
CONTINUOUS
100
AcDbLine
 10
4.5453031102362207
 20
-2.2091417322834643
 30
0
 11
4.5361960629921256
 21
-2.2121007874015746
 31
0
  0
LINE
  5
DC
330
1B
100
AcDbEntity
  8
Edge.Cuts
  6
CONTINUOUS
100
AcDbLine
 10
4.5361960629921256
 20
-2.2121007874015746
 30
0
 11
4.5267382677165351
 21
-2.2135987795275591
 31
0
  0
LINE
  5
DD
330
1B
100
AcDbEntity
  8
Edge.Cuts
  6
CONTINUOUS
100
AcDbLine
 10
4.5267382677165351
 20
-2.2135987795275591
 30
0
 11
4.5171625196850389
 21
-2.2135987795275591
 31
0
  0
LINE
  5
DE
330
1B
100
AcDbEntity
  8
Edge.Cuts
  6
CONTINUOUS
100
AcDbLine
 10
4.5171625196850389
 20
-2.2135987795275591
 30
0
 11
4.5077047244094484
 21
-2.2121007874015746
 31
0
  0
LINE
  5
DF
330
1B
100
AcDbEntity
  8
Edge.Cuts
  6
CONTINUOUS
100
AcDbLine
 10
4.5077047244094484
 20
-2.2121007874015746
 30
0
 11
4.4985976771653542
 21
-2.2091417322834643
 31
0
  0
LINE
  5
E0
330
1B
100
AcDbEntity
  8
Edge.Cuts
  6
CONTINUOUS
100
AcDbLine
 10
4.4985976771653542
 20
-2.2091417322834643
 30
0
 11
4.4900656299212596
 21
-2.2047944488188977
 31
0
  0
LINE
  5
E1
330
1B
100
AcDbEntity
  8
Edge.Cuts
  6
CONTINUOUS
100
AcDbLine
 10
4.4900656299212596
 20
-2.2047944488188977
 30
0
 11
4.4823187401574804
 21
-2.1991659842519686
 31
0
  0
LINE
  5
E2
330
1B
100
AcDbEntity
  8
Edge.Cuts
  6
CONTINUOUS
100
AcDbLine
 10
4.4823187401574804
 20
-2.1991659842519686
 30
0
 11
4.4755476771653546
 21
-2.1923949212598424
 31
0
  0
LINE
  5
E3
330
1B
100
AcDbEntity
  8
Edge.Cuts
  6
CONTINUOUS
100
AcDbLine
 10
4.4755476771653546
 20
-2.1923949212598424
 30
0
 11
4.4699192125984251
 21
-2.1846480314960628
 31
0
  0
LINE
  5
E4
330
1B
100
AcDbEntity
  8
Edge.Cuts
  6
CONTINUOUS
100
AcDbLine
 10
4.4699192125984251
 20
-2.1846480314960628
 30
0
 11
4.4655719291338585
 21
-2.1761159842519686
 31
0
  0
LINE
  5
E5
330
1B
100
AcDbEntity
  8
Edge.Cuts
  6
CONTINUOUS
100
AcDbLine
 10
4.4655719291338585
 20
-2.1761159842519686
 30
0
 11
4.4626128740157478
 21
-2.167008937007874
 31
0
  0
LINE
  5
E6
330
1B
100
AcDbEntity
  8
Edge.Cuts
  6
CONTINUOUS
100
AcDbLine
 10
4.4626128740157478
 20
-2.167008937007874
 30
0
 11
4.4611148818897632
 21
-2.1575511417322835
 31
0
  0
LINE
  5
E7
330
1B
100
AcDbEntity
  8
Edge.Cuts
  6
CONTINUOUS
100
AcDbLine
 10
4.4611148818897632
 20
-2.1575511417322835
 30
0
 11
4.4611148818897632
 21
-2.1482704724409447
 31
0
  0
LINE
  5
E8
330
1B
100
AcDbEntity
  8
Edge.Cuts
  6
CONTINUOUS
100
AcDbLine
 10
4.4611148818897632
 20
-2.1482704724409447
 30
0
 11
4.4611148818897632
 21
-2.1479753937007873
 31
0
  0
LINE
  5
E9
330
1B
100
AcDbEntity
  8
Edge.Cuts
  6
CONTINUOUS
100
AcDbLine
 10
4.4611148818897632
 20
-2.1479753937007873
 30
0
 11
4.4626128740157478
 21
-2.1385175984251967
 31
0
  0
LINE
  5
EA
330
1B
100
AcDbEntity
  8
Edge.Cuts
  6
CONTINUOUS
100
AcDbLine
 10
4.4626128740157478
 20
-2.1385175984251967
 30
0
 11
4.4655719291338585
 21
-2.1294105511811021
 31
0
  0
LINE
  5
EB
330
1B
100
AcDbEntity
  8
Edge.Cuts
  6
CONTINUOUS
100
AcDbLine
 10
4.4655719291338585
 20
-2.1294105511811021
 30
0
 11
4.4699192125984251
 21
-2.1208785039370079
 31
0
  0
LINE
  5
EC
330
1B
100
AcDbEntity
  8
Edge.Cuts
  6
CONTINUOUS
100
AcDbLine
 10
4.4699192125984251
 20
-2.1208785039370079
 30
0
 11
4.4755476771653546
 21
-2.1131316141732284
 31
0
  0
LINE
  5
ED
330
1B
100
AcDbEntity
  8
Edge.Cuts
  6
CONTINUOUS
100
AcDbLine
 10
4.4755476771653546
 20
-2.1131316141732284
 30
0
 11
4.4823187401574804
 21
-2.1063605511811021
 31
0
  0
LINE
  5
EE
330
1B
100
AcDbEntity
  8
Edge.Cuts
  6
CONTINUOUS
100
AcDbLine
 10
4.4823187401574804
 20
-2.1063605511811021
 30
0
 11
4.4900656299212596
 21
-2.100732086614173
 31
0
  0
LINE
  5
EF
330
1B
100
AcDbEntity
  8
Edge.Cuts
  6
CONTINUOUS
100
AcDbLine
 10
4.4900656299212596
 20
-2.100732086614173
 30
0
 11
4.4985976771653542
 21
-2.0963848031496064
 31
0
  0
LINE
  5
F0
330
1B
100
AcDbEntity
  8
Edge.Cuts
  6
CONTINUOUS
100
AcDbLine
 10
4.4985976771653542
 20
-2.0963848031496064
 30
0
 11
4.5077047244094484
 21
-2.0934257480314962
 31
0
  0
LINE
  5
F1
330
1B
100
AcDbEntity
  8
Edge.Cuts
  6
CONTINUOUS
100
AcDbLine
 10
4.5077047244094484
 20
-2.0934257480314962
 30
0
 11
4.5171625196850389
 21
-2.0919277559055116
 31
0
  0
LINE
  5
F2
330
1B
100
AcDbEntity
  8
Edge.Cuts
  6
CONTINUOUS
100
AcDbLine
 10
4.5171625196850389
 20
-2.0919277559055116
 30
0
 11
4.5267382677165351
 21
-2.0919277559055116
 31
0
  0
LINE
  5
F3
330
1B
100
AcDbEntity
  8
Edge.Cuts
  6
CONTINUOUS
100
AcDbLine
 10
4.5267382677165351
 20
-2.0919277559055116
 30
0
 11
4.5361960629921256
 21
-2.0934257480314962
 31
0
  0
LINE
  5
F4
330
1B
100
AcDbEntity
  8
Edge.Cuts
  6
CONTINUOUS
100
AcDbLine
 10
4.4648637795275592
 20
-2.157256062992126
 30
0
 11
4.4662694488188972
 21
-2.1661311023622045
 31
0
  0
LINE
  5
F5
330
1B
100
AcDbEntity
  8
Edge.Cuts
  6
CONTINUOUS
100
AcDbLine
 10
4.4662694488188972
 20
-2.1661311023622045
 30
0
 11
4.4690461417322833
 21
-2.1746769291338581
 31
0
  0
LINE
  5
F6
330
1B
100
AcDbEntity
  8
Edge.Cuts
  6
CONTINUOUS
100
AcDbLine
 10
4.4690461417322833
 20
-2.1746769291338581
 30
0
 11
4.4731255511811021
 21
-2.182683188976378
 31
0
  0
LINE
  5
F7
330
1B
100
AcDbEntity
  8
Edge.Cuts
  6
CONTINUOUS
100
AcDbLine
 10
4.4731255511811021
 20
-2.182683188976378
 30
0
 11
4.4784071653543309
 21
-2.1899527165354331
 31
0
  0
LINE
  5
F8
330
1B
100
AcDbEntity
  8
Edge.Cuts
  6
CONTINUOUS
100
AcDbLine
 10
4.4784071653543309
 20
-2.1899527165354331
 30
0
 11
4.4847609448818897
 21
-2.1963064960629919
 31
0
  0
LINE
  5
F9
330
1B
100
AcDbEntity
  8
Edge.Cuts
  6
CONTINUOUS
100
AcDbLine
 10
4.4847609448818897
 20
-2.1963064960629919
 30
0
 11
4.4920304724409448
 21
-2.2015881102362203
 31
0
  0
LINE
  5
FA
330
1B
100
AcDbEntity
  8
Edge.Cuts
  6
CONTINUOUS
100
AcDbLine
 10
4.4920304724409448
 20
-2.2015881102362203
 30
0
 11
4.5000367322834647
 21
-2.2056675196850395
 31
0
  0
LINE
  5
FB
330
1B
100
AcDbEntity
  8
Edge.Cuts
  6
CONTINUOUS
100
AcDbLine
 10
4.5000367322834647
 20
-2.2056675196850395
 30
0
 11
4.5085825590551183
 21
-2.2084442125984252
 31
0
  0
LINE
  5
FC
330
1B
100
AcDbEntity
  8
Edge.Cuts
  6
CONTINUOUS
100
AcDbLine
 10
4.5085825590551183
 20
-2.2084442125984252
 30
0
 11
4.5174575984251968
 21
-2.2098498818897636
 31
0
  0
LINE
  5
FD
330
1B
100
AcDbEntity
  8
Edge.Cuts
  6
CONTINUOUS
100
AcDbLine
 10
4.5174575984251968
 20
-2.2098498818897636
 30
0
 11
4.5264431889763781
 21
-2.2098498818897636
 31
0
  0
LINE
  5
FE
330
1B
100
AcDbEntity
  8
Edge.Cuts
  6
CONTINUOUS
100
AcDbLine
 10
4.5264431889763781
 20
-2.2098498818897636
 30
0
 11
4.5353182283464566
 21
-2.2084442125984252
 31
0
  0
LINE
  5
FF
330
1B
100
AcDbEntity
  8
Edge.Cuts
  6
CONTINUOUS
100
AcDbLine
 10
4.5353182283464566
 20
-2.2084442125984252
 30
0
 11
4.5438640551181102
 21
-2.2056675196850395
 31
0
  0
LINE
  5
100
330
1B
100
AcDbEntity
  8
Edge.Cuts
  6
CONTINUOUS
100
AcDbLine
 10
4.5438640551181102
 20
-2.2056675196850395
 30
0
 11
4.5518703149606301
 21
-2.2015881102362203
 31
0
  0
LINE
  5
101
330
1B
100
AcDbEntity
  8
Edge.Cuts
  6
CONTINUOUS
100
AcDbLine
 10
4.5518703149606301
 20
-2.2015881102362203
 30
0
 11
4.5591398425196852
 21
-2.1963064960629919
 31
0
  0
LINE
  5
102
330
1B
100
AcDbEntity
  8
Edge.Cuts
  6
CONTINUOUS
100
AcDbLine
 10
4.5591398425196852
 20
-2.1963064960629919
 30
0
 11
4.565493622047244
 21
-2.1899527165354331
 31
0
  0
LINE
  5
103
330
1B
100
AcDbEntity
  8
Edge.Cuts
  6
CONTINUOUS
100
AcDbLine
 10
4.565493622047244
 20
-2.1899527165354331
 30
0
 11
4.5707752362204728
 21
-2.182683188976378
 31
0
  0
LINE
  5
104
330
1B
100
AcDbEntity
  8
Edge.Cuts
  6
CONTINUOUS
100
AcDbLine
 10
4.5707752362204728
 20
-2.182683188976378
 30
0
 11
4.5748546456692916
 21
-2.1746769291338581
 31
0
  0
LINE
  5
105
330
1B
100
AcDbEntity
  8
Edge.Cuts
  6
CONTINUOUS
100
AcDbLine
 10
4.5748546456692916
 20
-2.1746769291338581
 30
0
 11
4.5776313385826768
 21
-2.1661311023622045
 31
0
  0
LINE
  5
106
330
1B
100
AcDbEntity
  8
Edge.Cuts
  6
CONTINUOUS
100
AcDbLine
 10
4.5776313385826768
 20
-2.1661311023622045
 30
0
 11
4.5790370078740157
 21
-2.157256062992126
 31
0
  0
LINE
  5
107
330
1B
100
AcDbEntity
  8
Edge.Cuts
  6
CONTINUOUS
100
AcDbLine
 10
4.5790370078740157
 20
-2.157256062992126
 30
0
 11
4.5790370078740157
 21
-2.1482704724409447
 31
0
  0
LINE
  5
108
330
1B
100
AcDbEntity
  8
Edge.Cuts
  6
CONTINUOUS
100
AcDbLine
 10
4.5790370078740157
 20
-2.1482704724409447
 30
0
 11
4.5776313385826768
 21
-2.1393954330708662
 31
0
  0
LINE
  5
109
330
1B
100
AcDbEntity
  8
Edge.Cuts
  6
CONTINUOUS
100
AcDbLine
 10
4.5776313385826768
 20
-2.1393954330708662
 30
0
 11
4.5748546456692916
 21
-2.1308496062992126
 31
0
  0
LINE
  5
10A
330
1B
100
AcDbEntity
  8
Edge.Cuts
  6
CONTINUOUS
100
AcDbLine
 10
4.5748546456692916
 20
-2.1308496062992126
 30
0
 11
4.5707752362204728
 21
-2.1228433464566927
 31
0
  0
LINE
  5
10B
330
1B
100
AcDbEntity
  8
Edge.Cuts
  6
CONTINUOUS
100
AcDbLine
 10
4.5707752362204728
 20
-2.1228433464566927
 30
0
 11
4.565493622047244
 21
-2.1155738188976376
 31
0
  0
LINE
  5
10C
330
1B
100
AcDbEntity
  8
Edge.Cuts
  6
CONTINUOUS
100
AcDbLine
 10
4.565493622047244
 20
-2.1155738188976376
 30
0
 11
4.5591398425196852
 21
-2.1092200393700788
 31
0
  0
LINE
  5
10D
330
1B
100
AcDbEntity
  8
Edge.Cuts
  6
CONTINUOUS
100
AcDbLine
 10
4.5591398425196852
 20
-2.1092200393700788
 30
0
 11
4.5518703149606301
 21
-2.1039384251968505
 31
0
  0
LINE
  5
10E
330
1B
100
AcDbEntity
  8
Edge.Cuts
  6
CONTINUOUS
100
AcDbLine
 10
4.5518703149606301
 20
-2.1039384251968505
 30
0
 11
4.5438640551181102
 21
-2.0998590157480312
 31
0
  0
LINE
  5
10F
330
1B
100
AcDbEntity
  8
Edge.Cuts
  6
CONTINUOUS
100
AcDbLine
 10
4.5438640551181102
 20
-2.0998590157480312
 30
0
 11
4.5353182283464566
 21
-2.0970823228346456
 31
0
  0
LINE
  5
110
330
1B
100
AcDbEntity
  8
Edge.Cuts
  6
CONTINUOUS
100
AcDbLine
 10
4.5353182283464566
 20
-2.0970823228346456
 30
0
 11
4.5264431889763781
 21
-2.0956766535433071
 31
0
  0
LINE
  5
111
330
1B
100
AcDbEntity
  8
Edge.Cuts
  6
CONTINUOUS
100
AcDbLine
 10
4.5264431889763781
 20
-2.0956766535433071
 30
0
 11
4.5174575984251968
 21
-2.0956766535433071
 31
0
  0
LINE
  5
112
330
1B
100
AcDbEntity
  8
Edge.Cuts
  6
CONTINUOUS
100
AcDbLine
 10
4.5174575984251968
 20
-2.0956766535433071
 30
0
 11
4.5085825590551183
 21
-2.0970823228346456
 31
0
  0
LINE
  5
113
330
1B
100
AcDbEntity
  8
Edge.Cuts
  6
CONTINUOUS
100
AcDbLine
 10
4.5085825590551183
 20
-2.0970823228346456
 30
0
 11
4.5000367322834647
 21
-2.0998590157480312
 31
0
  0
LINE
  5
114
330
1B
100
AcDbEntity
  8
Edge.Cuts
  6
CONTINUOUS
100
AcDbLine
 10
4.5000367322834647
 20
-2.0998590157480312
 30
0
 11
4.4920304724409448
 21
-2.1039384251968505
 31
0
  0
LINE
  5
115
330
1B
100
AcDbEntity
  8
Edge.Cuts
  6
CONTINUOUS
100
AcDbLine
 10
4.4920304724409448
 20
-2.1039384251968505
 30
0
 11
4.4847609448818897
 21
-2.1092200393700788
 31
0
  0
LINE
  5
116
330
1B
100
AcDbEntity
  8
Edge.Cuts
  6
CONTINUOUS
100
AcDbLine
 10
4.4847609448818897
 20
-2.1092200393700788
 30
0
 11
4.4784071653543309
 21
-2.1155738188976376
 31
0
  0
LINE
  5
117
330
1B
100
AcDbEntity
  8
Edge.Cuts
  6
CONTINUOUS
100
AcDbLine
 10
4.4784071653543309
 20
-2.1155738188976376
 30
0
 11
4.4731255511811021
 21
-2.1228433464566927
 31
0
  0
LINE
  5
118
330
1B
100
AcDbEntity
  8
Edge.Cuts
  6
CONTINUOUS
100
AcDbLine
 10
4.4731255511811021
 20
-2.1228433464566927
 30
0
 11
4.4690461417322833
 21
-2.1308496062992126
 31
0
  0
LINE
  5
119
330
1B
100
AcDbEntity
  8
Edge.Cuts
  6
CONTINUOUS
100
AcDbLine
 10
4.4690461417322833
 20
-2.1308496062992126
 30
0
 11
4.4662694488188972
 21
-2.1393954330708662
 31
0
  0
LINE
  5
11A
330
1B
100
AcDbEntity
  8
Edge.Cuts
  6
CONTINUOUS
100
AcDbLine
 10
4.4662694488188972
 20
-2.1393954330708662
 30
0
 11
4.4648637795275592
 21
-2.1482704724409447
 31
0
  0
LINE
  5
11B
330
1B
100
AcDbEntity
  8
Edge.Cuts
  6
CONTINUOUS
100
AcDbLine
 10
4.4648637795275592
 20
-2.1482704724409447
 30
0
 11
4.4648637795275592
 21
-2.157256062992126
 31
0
  0
LINE
  5
11C
330
1B
100
AcDbEntity
  8
Edge.Cuts
  6
CONTINUOUS
100
AcDbLine
 10
5.4417078740157478
 20
-2.0934257480314962
 30
0
 11
5.450814921259842
 21
-2.0963848031496064
 31
0
  0
LINE
  5
11D
330
1B
100
AcDbEntity
  8
Edge.Cuts
  6
CONTINUOUS
100
AcDbLine
 10
5.450814921259842
 20
-2.0963848031496064
 30
0
 11
5.4593469685039366
 21
-2.100732086614173
 31
0
  0
LINE
  5
11E
330
1B
100
AcDbEntity
  8
Edge.Cuts
  6
CONTINUOUS
100
AcDbLine
 10
5.4593469685039366
 20
-2.100732086614173
 30
0
 11
5.4670938582677167
 21
-2.1063605511811021
 31
0
  0
LINE
  5
11F
330
1B
100
AcDbEntity
  8
Edge.Cuts
  6
CONTINUOUS
100
AcDbLine
 10
5.4670938582677167
 20
-2.1063605511811021
 30
0
 11
5.4738649212598425
 21
-2.1131316141732284
 31
0
  0
LINE
  5
120
330
1B
100
AcDbEntity
  8
Edge.Cuts
  6
CONTINUOUS
100
AcDbLine
 10
5.4738649212598425
 20
-2.1131316141732284
 30
0
 11
5.4794933858267711
 21
-2.1208785039370079
 31
0
  0
LINE
  5
121
330
1B
100
AcDbEntity
  8
Edge.Cuts
  6
CONTINUOUS
100
AcDbLine
 10
5.4794933858267711
 20
-2.1208785039370079
 30
0
 11
5.4838406692913386
 21
-2.1294105511811021
 31
0
  0
LINE
  5
122
330
1B
100
AcDbEntity
  8
Edge.Cuts
  6
CONTINUOUS
100
AcDbLine
 10
5.4838406692913386
 20
-2.1294105511811021
 30
0
 11
5.4867997244094484
 21
-2.1385175984251967
 31
0
  0
LINE
  5
123
330
1B
100
AcDbEntity
  8
Edge.Cuts
  6
CONTINUOUS
100
AcDbLine
 10
5.4867997244094484
 20
-2.1385175984251967
 30
0
 11
5.488297716535433
 21
-2.1479753937007873
 31
0
  0
LINE
  5
124
330
1B
100
AcDbEntity
  8
Edge.Cuts
  6
CONTINUOUS
100
AcDbLine
 10
5.488297716535433
 20
-2.1479753937007873
 30
0
 11
5.488297716535433
 21
-2.1575511417322835
 31
0
  0
LINE
  5
125
330
1B
100
AcDbEntity
  8
Edge.Cuts
  6
CONTINUOUS
100
AcDbLine
 10
5.488297716535433
 20
-2.1575511417322835
 30
0
 11
5.4867997244094484
 21
-2.167008937007874
 31
0
  0
LINE
  5
126
330
1B
100
AcDbEntity
  8
Edge.Cuts
  6
CONTINUOUS
100
AcDbLine
 10
5.4867997244094484
 20
-2.167008937007874
 30
0
 11
5.4838406692913386
 21
-2.1761159842519686
 31
0
  0
LINE
  5
127
330
1B
100
AcDbEntity
  8
Edge.Cuts
  6
CONTINUOUS
100
AcDbLine
 10
5.4838406692913386
 20
-2.1761159842519686
 30
0
 11
5.4794933858267711
 21
-2.1846480314960628
 31
0
  0
LINE
  5
128
330
1B
100
AcDbEntity
  8
Edge.Cuts
  6
CONTINUOUS
100
AcDbLine
 10
5.4794933858267711
 20
-2.1846480314960628
 30
0
 11
5.4738649212598425
 21
-2.1923949212598424
 31
0
  0
LINE
  5
129
330
1B
100
AcDbEntity
  8
Edge.Cuts
  6
CONTINUOUS
100
AcDbLine
 10
5.4738649212598425
 20
-2.1923949212598424
 30
0
 11
5.4670938582677167
 21
-2.1991659842519686
 31
0
  0
LINE
  5
12A
330
1B
100
AcDbEntity
  8
Edge.Cuts
  6
CONTINUOUS
100
AcDbLine
 10
5.4670938582677167
 20
-2.1991659842519686
 30
0
 11
5.4593469685039366
 21
-2.2047944488188977
 31
0
  0
LINE
  5
12B
330
1B
100
AcDbEntity
  8
Edge.Cuts
  6
CONTINUOUS
100
AcDbLine
 10
5.4593469685039366
 20
-2.2047944488188977
 30
0
 11
5.450814921259842
 21
-2.2091417322834643
 31
0
  0
LINE
  5
12C
330
1B
100
AcDbEntity
  8
Edge.Cuts
  6
CONTINUOUS
100
AcDbLine
 10
5.450814921259842
 20
-2.2091417322834643
 30
0
 11
5.4417078740157478
 21
-2.2121007874015746
 31
0
  0
LINE
  5
12D
330
1B
100
AcDbEntity
  8
Edge.Cuts
  6
CONTINUOUS
100
AcDbLine
 10
5.4417078740157478
 20
-2.2121007874015746
 30
0
 11
5.4322500787401573
 21
-2.2135987795275591
 31
0
  0
LINE
  5
12E
330
1B
100
AcDbEntity
  8
Edge.Cuts
  6
CONTINUOUS
100
AcDbLine
 10
5.4322500787401573
 20
-2.2135987795275591
 30
0
 11
5.4226743307086611
 21
-2.2135987795275591
 31
0
  0
LINE
  5
12F
330
1B
100
AcDbEntity
  8
Edge.Cuts
  6
CONTINUOUS
100
AcDbLine
 10
5.4226743307086611
 20
-2.2135987795275591
 30
0
 11
5.4132165354330706
 21
-2.2121007874015746
 31
0
  0
LINE
  5
130
330
1B
100
AcDbEntity
  8
Edge.Cuts
  6
CONTINUOUS
100
AcDbLine
 10
5.4132165354330706
 20
-2.2121007874015746
 30
0
 11
5.4041094881889764
 21
-2.2091417322834643
 31
0
  0
LINE
  5
131
330
1B
100
AcDbEntity
  8
Edge.Cuts
  6
CONTINUOUS
100
AcDbLine
 10
5.4041094881889764
 20
-2.2091417322834643
 30
0
 11
5.3955774409448818
 21
-2.2047944488188977
 31
0
  0
LINE
  5
132
330
1B
100
AcDbEntity
  8
Edge.Cuts
  6
CONTINUOUS
100
AcDbLine
 10
5.3955774409448818
 20
-2.2047944488188977
 30
0
 11
5.3878305511811027
 21
-2.1991659842519686
 31
0
  0
LINE
  5
133
330
1B
100
AcDbEntity
  8
Edge.Cuts
  6
CONTINUOUS
100
AcDbLine
 10
5.3878305511811027
 20
-2.1991659842519686
 30
0
 11
5.3810594881889759
 21
-2.1923949212598424
 31
0
  0
LINE
  5
134
330
1B
100
AcDbEntity
  8
Edge.Cuts
  6
CONTINUOUS
100
AcDbLine
 10
5.3810594881889759
 20
-2.1923949212598424
 30
0
 11
5.3754310236220473
 21
-2.1846480314960628
 31
0
  0
LINE
  5
135
330
1B
100
AcDbEntity
  8
Edge.Cuts
  6
CONTINUOUS
100
AcDbLine
 10
5.3754310236220473
 20
-2.1846480314960628
 30
0
 11
5.3710837401574798
 21
-2.1761159842519686
 31
0
  0
LINE
  5
136
330
1B
100
AcDbEntity
  8
Edge.Cuts
  6
CONTINUOUS
100
AcDbLine
 10
5.3710837401574798
 20
-2.1761159842519686
 30
0
 11
5.36812468503937
 21
-2.167008937007874
 31
0
  0
LINE
  5
137
330
1B
100
AcDbEntity
  8
Edge.Cuts
  6
CONTINUOUS
100
AcDbLine
 10
5.36812468503937
 20
-2.167008937007874
 30
0
 11
5.3666266929133855
 21
-2.1575511417322835
 31
0
  0
LINE
  5
138
330
1B
100
AcDbEntity
  8
Edge.Cuts
  6
CONTINUOUS
100
AcDbLine
 10
5.3666266929133855
 20
-2.1575511417322835
 30
0
 11
5.3666266929133855
 21
-2.1482704724409447
 31
0
  0
LINE
  5
139
330
1B
100
AcDbEntity
  8
Edge.Cuts
  6
CONTINUOUS
100
AcDbLine
 10
5.3666266929133855
 20
-2.1482704724409447
 30
0
 11
5.3666266929133855
 21
-2.1479753937007873
 31
0
  0
LINE
  5
13A
330
1B
100
AcDbEntity
  8
Edge.Cuts
  6
CONTINUOUS
100
AcDbLine
 10
5.3666266929133855
 20
-2.1479753937007873
 30
0
 11
5.36812468503937
 21
-2.1385175984251967
 31
0
  0
LINE
  5
13B
330
1B
100
AcDbEntity
  8
Edge.Cuts
  6
CONTINUOUS
100
AcDbLine
 10
5.36812468503937
 20
-2.1385175984251967
 30
0
 11
5.3710837401574798
 21
-2.1294105511811021
 31
0
  0
LINE
  5
13C
330
1B
100
AcDbEntity
  8
Edge.Cuts
  6
CONTINUOUS
100
AcDbLine
 10
5.3710837401574798
 20
-2.1294105511811021
 30
0
 11
5.3754310236220473
 21
-2.1208785039370079
 31
0
  0
LINE
  5
13D
330
1B
100
AcDbEntity
  8
Edge.Cuts
  6
CONTINUOUS
100
AcDbLine
 10
5.3754310236220473
 20
-2.1208785039370079
 30
0
 11
5.3810594881889759
 21
-2.1131316141732284
 31
0
  0
LINE
  5
13E
330
1B
100
AcDbEntity
  8
Edge.Cuts
  6
CONTINUOUS
100
AcDbLine
 10
5.3810594881889759
 20
-2.1131316141732284
 30
0
 11
5.3878305511811027
 21
-2.1063605511811021
 31
0
  0
LINE
  5
13F
330
1B
100
AcDbEntity
  8
Edge.Cuts
  6
CONTINUOUS
100
AcDbLine
 10
5.3878305511811027
 20
-2.1063605511811021
 30
0
 11
5.3955774409448818
 21
-2.100732086614173
 31
0
  0
LINE
  5
140
330
1B
100
AcDbEntity
  8
Edge.Cuts
  6
CONTINUOUS
100
AcDbLine
 10
5.3955774409448818
 20
-2.100732086614173
 30
0
 11
5.4041094881889764
 21
-2.0963848031496064
 31
0
  0
LINE
  5
141
330
1B
100
AcDbEntity
  8
Edge.Cuts
  6
CONTINUOUS
100
AcDbLine
 10
5.4041094881889764
 20
-2.0963848031496064
 30
0
 11
5.4132165354330706
 21
-2.0934257480314962
 31
0
  0
LINE
  5
142
330
1B
100
AcDbEntity
  8
Edge.Cuts
  6
CONTINUOUS
100
AcDbLine
 10
5.4132165354330706
 20
-2.0934257480314962
 30
0
 11
5.4226743307086611
 21
-2.0919277559055116
 31
0
  0
LINE
  5
143
330
1B
100
AcDbEntity
  8
Edge.Cuts
  6
CONTINUOUS
100
AcDbLine
 10
5.4226743307086611
 20
-2.0919277559055116
 30
0
 11
5.4322500787401573
 21
-2.0919277559055116
 31
0
  0
LINE
  5
144
330
1B
100
AcDbEntity
  8
Edge.Cuts
  6
CONTINUOUS
100
AcDbLine
 10
5.4322500787401573
 20
-2.0919277559055116
 30
0
 11
5.4417078740157478
 21
-2.0934257480314962
 31
0
  0
LINE
  5
145
330
1B
100
AcDbEntity
  8
Edge.Cuts
  6
CONTINUOUS
100
AcDbLine
 10
5.3703755905511814
 20
-2.157256062992126
 30
0
 11
5.3717812598425194
 21
-2.1661311023622045
 31
0
  0
LINE
  5
146
330
1B
100
AcDbEntity
  8
Edge.Cuts
  6
CONTINUOUS
100
AcDbLine
 10
5.3717812598425194
 20
-2.1661311023622045
 30
0
 11
5.3745579527559055
 21
-2.1746769291338581
 31
0
  0
LINE
  5
147
330
1B
100
AcDbEntity
  8
Edge.Cuts
  6
CONTINUOUS
100
AcDbLine
 10
5.3745579527559055
 20
-2.1746769291338581
 30
0
 11
5.3786373622047243
 21
-2.182683188976378
 31
0
  0
LINE
  5
148
330
1B
100
AcDbEntity
  8
Edge.Cuts
  6
CONTINUOUS
100
AcDbLine
 10
5.3786373622047243
 20
-2.182683188976378
 30
0
 11
5.3839189763779522
 21
-2.1899527165354331
 31
0
  0
LINE
  5
149
330
1B
100
AcDbEntity
  8
Edge.Cuts
  6
CONTINUOUS
100
AcDbLine
 10
5.3839189763779522
 20
-2.1899527165354331
 30
0
 11
5.3902727559055119
 21
-2.1963064960629919
 31
0
  0
LINE
  5
14A
330
1B
100
AcDbEntity
  8
Edge.Cuts
  6
CONTINUOUS
100
AcDbLine
 10
5.3902727559055119
 20
-2.1963064960629919
 30
0
 11
5.397542283464567
 21
-2.2015881102362203
 31
0
  0
LINE
  5
14B
330
1B
100
AcDbEntity
  8
Edge.Cuts
  6
CONTINUOUS
100
AcDbLine
 10
5.397542283464567
 20
-2.2015881102362203
 30
0
 11
5.4055485433070869
 21
-2.2056675196850395
 31
0
  0
LINE
  5
14C
330
1B
100
AcDbEntity
  8
Edge.Cuts
  6
CONTINUOUS
100
AcDbLine
 10
5.4055485433070869
 20
-2.2056675196850395
 30
0
 11
5.4140943700787396
 21
-2.2084442125984252
 31
0
  0
LINE
  5
14D
330
1B
100
AcDbEntity
  8
Edge.Cuts
  6
CONTINUOUS
100
AcDbLine
 10
5.4140943700787396
 20
-2.2084442125984252
 30
0
 11
5.422969409448819
 21
-2.2098498818897636
 31
0
  0
LINE
  5
14E
330
1B
100
AcDbEntity
  8
Edge.Cuts
  6
CONTINUOUS
100
AcDbLine
 10
5.422969409448819
 20
-2.2098498818897636
 30
0
 11
5.4319550000000003
 21
-2.2098498818897636
 31
0
  0
LINE
  5
14F
330
1B
100
AcDbEntity
  8
Edge.Cuts
  6
CONTINUOUS
100
AcDbLine
 10
5.4319550000000003
 20
-2.2098498818897636
 30
0
 11
5.4408300393700788
 21
-2.2084442125984252
 31
0
  0
LINE
  5
150
330
1B
100
AcDbEntity
  8
Edge.Cuts
  6
CONTINUOUS
100
AcDbLine
 10
5.4408300393700788
 20
-2.2084442125984252
 30
0
 11
5.4493758661417324
 21
-2.2056675196850395
 31
0
  0
LINE
  5
151
330
1B
100
AcDbEntity
  8
Edge.Cuts
  6
CONTINUOUS
100
AcDbLine
 10
5.4493758661417324
 20
-2.2056675196850395
 30
0
 11
5.4573821259842514
 21
-2.2015881102362203
 31
0
  0
LINE
  5
152
330
1B
100
AcDbEntity
  8
Edge.Cuts
  6
CONTINUOUS
100
AcDbLine
 10
5.4573821259842514
 20
-2.2015881102362203
 30
0
 11
5.4646516535433074
 21
-2.1963064960629919
 31
0
  0
LINE
  5
153
330
1B
100
AcDbEntity
  8
Edge.Cuts
  6
CONTINUOUS
100
AcDbLine
 10
5.4646516535433074
 20
-2.1963064960629919
 30
0
 11
5.4710054330708662
 21
-2.1899527165354331
 31
0
  0
LINE
  5
154
330
1B
100
AcDbEntity
  8
Edge.Cuts
  6
CONTINUOUS
100
AcDbLine
 10
5.4710054330708662
 20
-2.1899527165354331
 30
0
 11
5.4762870472440941
 21
-2.182683188976378
 31
0
  0
LINE
  5
155
330
1B
100
AcDbEntity
  8
Edge.Cuts
  6
CONTINUOUS
100
AcDbLine
 10
5.4762870472440941
 20
-2.182683188976378
 30
0
 11
5.4803664566929129
 21
-2.1746769291338581
 31
0
  0
LINE
  5
156
330
1B
100
AcDbEntity
  8
Edge.Cuts
  6
CONTINUOUS
100
AcDbLine
 10
5.4803664566929129
 20
-2.1746769291338581
 30
0
 11
5.483143149606299
 21
-2.1661311023622045
 31
0
  0
LINE
  5
157
330
1B
100
AcDbEntity
  8
Edge.Cuts
  6
CONTINUOUS
100
AcDbLine
 10
5.483143149606299
 20
-2.1661311023622045
 30
0
 11
5.4845488188976379
 21
-2.157256062992126
 31
0
  0
LINE
  5
158
330
1B
100
AcDbEntity
  8
Edge.Cuts
  6
CONTINUOUS
100
AcDbLine
 10
5.4845488188976379
 20
-2.157256062992126
 30
0
 11
5.4845488188976379
 21
-2.1482704724409447
 31
0
  0
LINE
  5
159
330
1B
100
AcDbEntity
  8
Edge.Cuts
  6
CONTINUOUS
100
AcDbLine
 10
5.4845488188976379
 20
-2.1482704724409447
 30
0
 11
5.483143149606299
 21
-2.1393954330708662
 31
0
  0
LINE
  5
15A
330
1B
100
AcDbEntity
  8
Edge.Cuts
  6
CONTINUOUS
100
AcDbLine
 10
5.483143149606299
 20
-2.1393954330708662
 30
0
 11
5.4803664566929129
 21
-2.1308496062992126
 31
0
  0
LINE
  5
15B
330
1B
100
AcDbEntity
  8
Edge.Cuts
  6
CONTINUOUS
100
AcDbLine
 10
5.4803664566929129
 20
-2.1308496062992126
 30
0
 11
5.4762870472440941
 21
-2.1228433464566927
 31
0
  0
LINE
  5
15C
330
1B
100
AcDbEntity
  8
Edge.Cuts
  6
CONTINUOUS
100
AcDbLine
 10
5.4762870472440941
 20
-2.1228433464566927
 30
0
 11
5.4710054330708662
 21
-2.1155738188976376
 31
0
  0
LINE
  5
15D
330
1B
100
AcDbEntity
  8
Edge.Cuts
  6
CONTINUOUS
100
AcDbLine
 10
5.4710054330708662
 20
-2.1155738188976376
 30
0
 11
5.4646516535433074
 21
-2.1092200393700788
 31
0
  0
LINE
  5
15E
330
1B
100
AcDbEntity
  8
Edge.Cuts
  6
CONTINUOUS
100
AcDbLine
 10
5.4646516535433074
 20
-2.1092200393700788
 30
0
 11
5.4573821259842514
 21
-2.1039384251968505
 31
0
  0
LINE
  5
15F
330
1B
100
AcDbEntity
  8
Edge.Cuts
  6
CONTINUOUS
100
AcDbLine
 10
5.4573821259842514
 20
-2.1039384251968505
 30
0
 11
5.4493758661417324
 21
-2.0998590157480312
 31
0
  0
LINE
  5
160
330
1B
100
AcDbEntity
  8
Edge.Cuts
  6
CONTINUOUS
100
AcDbLine
 10
5.4493758661417324
 20
-2.0998590157480312
 30
0
 11
5.4408300393700788
 21
-2.0970823228346456
 31
0
  0
LINE
  5
161
330
1B
100
AcDbEntity
  8
Edge.Cuts
  6
CONTINUOUS
100
AcDbLine
 10
5.4408300393700788
 20
-2.0970823228346456
 30
0
 11
5.4319550000000003
 21
-2.0956766535433071
 31
0
  0
LINE
  5
162
330
1B
100
AcDbEntity
  8
Edge.Cuts
  6
CONTINUOUS
100
AcDbLine
 10
5.4319550000000003
 20
-2.0956766535433071
 30
0
 11
5.422969409448819
 21
-2.0956766535433071
 31
0
  0
LINE
  5
163
330
1B
100
AcDbEntity
  8
Edge.Cuts
  6
CONTINUOUS
100
AcDbLine
 10
5.422969409448819
 20
-2.0956766535433071
 30
0
 11
5.4140943700787396
 21
-2.0970823228346456
 31
0
  0
LINE
  5
164
330
1B
100
AcDbEntity
  8
Edge.Cuts
  6
CONTINUOUS
100
AcDbLine
 10
5.4140943700787396
 20
-2.0970823228346456
 30
0
 11
5.4055485433070869
 21
-2.0998590157480312
 31
0
  0
LINE
  5
165
330
1B
100
AcDbEntity
  8
Edge.Cuts
  6
CONTINUOUS
100
AcDbLine
 10
5.4055485433070869
 20
-2.0998590157480312
 30
0
 11
5.397542283464567
 21
-2.1039384251968505
 31
0
  0
LINE
  5
166
330
1B
100
AcDbEntity
  8
Edge.Cuts
  6
CONTINUOUS
100
AcDbLine
 10
5.397542283464567
 20
-2.1039384251968505
 30
0
 11
5.3902727559055119
 21
-2.1092200393700788
 31
0
  0
LINE
  5
167
330
1B
100
AcDbEntity
  8
Edge.Cuts
  6
CONTINUOUS
100
AcDbLine
 10
5.3902727559055119
 20
-2.1092200393700788
 30
0
 11
5.3839189763779522
 21
-2.1155738188976376
 31
0
  0
LINE
  5
168
330
1B
100
AcDbEntity
  8
Edge.Cuts
  6
CONTINUOUS
100
AcDbLine
 10
5.3839189763779522
 20
-2.1155738188976376
 30
0
 11
5.3786373622047243
 21
-2.1228433464566927
 31
0
  0
LINE
  5
169
330
1B
100
AcDbEntity
  8
Edge.Cuts
  6
CONTINUOUS
100
AcDbLine
 10
5.3786373622047243
 20
-2.1228433464566927
 30
0
 11
5.3745579527559055
 21
-2.1308496062992126
 31
0
  0
LINE
  5
16A
330
1B
100
AcDbEntity
  8
Edge.Cuts
  6
CONTINUOUS
100
AcDbLine
 10
5.3745579527559055
 20
-2.1308496062992126
 30
0
 11
5.3717812598425194
 21
-2.1393954330708662
 31
0
  0
LINE
  5
16B
330
1B
100
AcDbEntity
  8
Edge.Cuts
  6
CONTINUOUS
100
AcDbLine
 10
5.3717812598425194
 20
-2.1393954330708662
 30
0
 11
5.3703755905511814
 21
-2.1482704724409447
 31
0
  0
LINE
  5
16C
330
1B
100
AcDbEntity
  8
Edge.Cuts
  6
CONTINUOUS
100
AcDbLine
 10
5.3703755905511814
 20
-2.1482704724409447
 30
0
 11
5.3703755905511814
 21
-2.157256062992126
 31
0
  0
LINE
  5
16D
330
1B
100
AcDbEntity
  8
Edge.Cuts
  6
CONTINUOUS
100
AcDbLine
 10
7.2444711417322836
 20
-1.5935788582677164
 30
0
 11
7.2450038188976373
 21
-1.5941115354330708
 31
0
  0
LINE
  5
16E
330
1B
100
AcDbEntity
  8
Edge.Cuts
  6
CONTINUOUS
100
AcDbLine
 10
7.2450038188976373
 20
-1.5941115354330708
 30
0
 11
7.2450787401574805
 21
-1.594488188976378
 31
0
  0
LINE
  5
16F
330
1B
100
AcDbEntity
  8
Edge.Cuts
  6
CONTINUOUS
100
AcDbLine
 10
7.2450787401574805
 20
-1.594488188976378
 30
0
 11
7.2450787401574805
 21
-5.3149606299212593
 31
0
  0
LINE
  5
170
330
1B
100
AcDbEntity
  8
Edge.Cuts
  6
CONTINUOUS
100
AcDbLine
 10
7.2450787401574805
 20
-5.3149606299212593
 30
0
 11
7.2450038188976373
 21
-5.3153372834645669
 31
0
  0
LINE
  5
171
330
1B
100
AcDbEntity
  8
Edge.Cuts
  6
CONTINUOUS
100
AcDbLine
 10
7.2450038188976373
 20
-5.3153372834645669
 30
0
 11
7.2444711417322836
 21
-5.3158699606299216
 31
0
  0
LINE
  5
172
330
1B
100
AcDbEntity
  8
Edge.Cuts
  6
CONTINUOUS
100
AcDbLine
 10
7.2444711417322836
 20
-5.3158699606299216
 30
0
 11
7.2440944881889759
 21
-5.3159448818897639
 31
0
  0
LINE
  5
173
330
1B
100
AcDbEntity
  8
Edge.Cuts
  6
CONTINUOUS
100
AcDbLine
 10
7.2440944881889759
 20
-5.3159448818897639
 30
0
 11
2.5
 21
-5.3159448818897639
 31
0
  0
LINE
  5
174
330
1B
100
AcDbEntity
  8
Edge.Cuts
  6
CONTINUOUS
100
AcDbLine
 10
2.5
 20
-5.3159448818897639
 30
0
 11
2.4996233464566928
 21
-5.3158699606299216
 31
0
  0
LINE
  5
175
330
1B
100
AcDbEntity
  8
Edge.Cuts
  6
CONTINUOUS
100
AcDbLine
 10
2.4996233464566928
 20
-5.3158699606299216
 30
0
 11
2.4990906692913386
 21
-5.3153372834645669
 31
0
  0
LINE
  5
176
330
1B
100
AcDbEntity
  8
Edge.Cuts
  6
CONTINUOUS
100
AcDbLine
 10
2.4990906692913386
 20
-5.3153372834645669
 30
0
 11
2.4990157480314958
 21
-5.3149606299212593
 31
0
  0
LINE
  5
177
330
1B
100
AcDbEntity
  8
Edge.Cuts
  6
CONTINUOUS
100
AcDbLine
 10
2.4990157480314958
 20
-5.3149606299212593
 30
0
 11
2.4990157480314958
 21
-1.594488188976378
 31
0
  0
LINE
  5
178
330
1B
100
AcDbEntity
  8
Edge.Cuts
  6
CONTINUOUS
100
AcDbLine
 10
2.4990157480314958
 20
-1.594488188976378
 30
0
 11
2.4990906692913386
 21
-1.5941115354330708
 31
0
  0
LINE
  5
179
330
1B
100
AcDbEntity
  8
Edge.Cuts
  6
CONTINUOUS
100
AcDbLine
 10
2.4990906692913386
 20
-1.5941115354330708
 30
0
 11
2.4996233464566928
 21
-1.5935788582677164
 31
0
  0
LINE
  5
17A
330
1B
100
AcDbEntity
  8
Edge.Cuts
  6
CONTINUOUS
100
AcDbLine
 10
2.4996233464566928
 20
-1.5935788582677164
 30
0
 11
2.5
 21
-1.5935039370078741
 31
0
  0
LINE
  5
17B
330
1B
100
AcDbEntity
  8
Edge.Cuts
  6
CONTINUOUS
100
AcDbLine
 10
2.5
 20
-1.5935039370078741
 30
0
 11
7.2440944881889759
 21
-1.5935039370078741
 31
0
  0
LINE
  5
17C
330
1B
100
AcDbEntity
  8
Edge.Cuts
  6
CONTINUOUS
100
AcDbLine
 10
7.2440944881889759
 20
-1.5935039370078741
 30
0
 11
7.2444711417322836
 21
-1.5935788582677164
 31
0
  0
LINE
  5
17D
330
1B
100
AcDbEntity
  8
Edge.Cuts
  6
CONTINUOUS
100
AcDbLine
 10
2.5009842519685037
 20
-1.5954724409448819
 30
0
 11
2.5009842519685037
 21
-5.3139763779527556
 31
0
  0
LINE
  5
17E
330
1B
100
AcDbEntity
  8
Edge.Cuts
  6
CONTINUOUS
100
AcDbLine
 10
2.5009842519685037
 20
-5.3139763779527556
 30
0
 11
7.2431102362204722
 21
-5.3139763779527556
 31
0
  0
LINE
  5
17F
330
1B
100
AcDbEntity
  8
Edge.Cuts
  6
CONTINUOUS
100
AcDbLine
 10
7.2431102362204722
 20
-5.3139763779527556
 30
0
 11
7.2431102362204722
 21
-1.5954724409448819
 31
0
  0
LINE
  5
180
330
1B
100
AcDbEntity
  8
Edge.Cuts
  6
CONTINUOUS
100
AcDbLine
 10
7.2431102362204722
 20
-1.5954724409448819
 30
0
 11
2.5009842519685037
 21
-1.5954724409448819
 31
0
  0
CIRCLE
  5
181
330
1B
100
AcDbEntity
  8
Edge.Cuts
100
AcDbCircle
 10
4.0354330708661417
 20
-2.7165354330708662
 30
0
 40
0.0196850393700787
  0
CIRCLE
  5
182
330
1B
100
AcDbEntity
  8
Edge.Cuts
100
AcDbCircle
 10
4.0354330708661417
 20
-2.8149606299212597
 30
0
 40
0.0196850393700787
  0
CIRCLE
  5
183
330
1B
100
AcDbEntity
  8
Edge.Cuts
100
AcDbCircle
 10
4.0354330708661417
 20
-2.9133858267716537
 30
0
 40
0.0196850393700787
  0
CIRCLE
  5
184
330
1B
100
AcDbEntity
  8
Edge.Cuts
100
AcDbCircle
 10
4.0354330708661417
 20
-3.0118110236220472
 30
0
 40
0.0196850393700787
  0
CIRCLE
  5
185
330
1B
100
AcDbEntity
  8
Edge.Cuts
100
AcDbCircle
 10
4.0354330708661417
 20
-3.1102362204724407
 30
0
 40
0.0196850393700787
  0
CIRCLE
  5
186
330
1B
100
AcDbEntity
  8
Edge.Cuts
100
AcDbCircle
 10
4.0354330708661417
 20
-3.2086614173228347
 30
0
 40
0.0196850393700787
  0
CIRCLE
  5
187
330
1B
100
AcDbEntity
  8
Edge.Cuts
100
AcDbCircle
 10
4.0354330708661417
 20
-3.3070866141732282
 30
0
 40
0.0196850393700787
  0
CIRCLE
  5
188
330
1B
100
AcDbEntity
  8
Edge.Cuts
100
AcDbCircle
 10
4.0354330708661417
 20
-3.4055118110236218
 30
0
 40
0.0196850393700787
  0
CIRCLE
  5
189
330
1B
100
AcDbEntity
  8
Edge.Cuts
100
AcDbCircle
 10
6.124488188976378
 20
-2.2712598425196848
 30
0
 40
0.015748031496063
  0
CIRCLE
  5
18A
330
1B
100
AcDbEntity
  8
Edge.Cuts
100
AcDbCircle
 10
6.124488188976378
 20
-2.3712598425196849
 30
0
 40
0.015748031496063
  0
CIRCLE
  5
18B
330
1B
100
AcDbEntity
  8
Edge.Cuts
100
AcDbCircle
 10
6.124488188976378
 20
-2.471259842519685
 30
0
 40
0.015748031496063
  0
CIRCLE
  5
18C
330
1B
100
AcDbEntity
  8
Edge.Cuts
100
AcDbCircle
 10
6.124488188976378
 20
-2.5712598425196851
 30
0
 40
0.015748031496063
  0
CIRCLE
  5
18D
330
1B
100
AcDbEntity
  8
Edge.Cuts
100
AcDbCircle
 10
4.4822834645669287
 20
-4.7834645669291334
 30
0
 40
0.015748031496063
  0
CIRCLE
  5
18E
330
1B
100
AcDbEntity
  8
Edge.Cuts
100
AcDbCircle
 10
3.9822834645669292
 20
-4.7834645669291334
 30
0
 40
0.015748031496063
  0
CIRCLE
  5
18F
330
1B
100
AcDbEntity
  8
Edge.Cuts
100
AcDbCircle
 10
3.1496062992125982
 20
-2.0078740157480315
 30
0
 40
0.0196850393700787
  0
CIRCLE
  5
190
330
1B
100
AcDbEntity
  8
Edge.Cuts
100
AcDbCircle
 10
3.0511811023622046
 20
-2.0078740157480315
 30
0
 40
0.0196850393700787
  0
CIRCLE
  5
191
330
1B
100
AcDbEntity
  8
Edge.Cuts
100
AcDbCircle
 10
3.3070866141732282
 20
-4.6456692913385824
 30
0
 40
0.0196850393700787
  0
CIRCLE
  5
192
330
1B
100
AcDbEntity
  8
Edge.Cuts
100
AcDbCircle
 10
3.3070866141732282
 20
-4.5472440944881889
 30
0
 40
0.0196850393700787
  0
CIRCLE
  5
193
330
1B
100
AcDbEntity
  8
Edge.Cuts
100
AcDbCircle
 10
3.3070866141732282
 20
-4.4488188976377954
 30
0
 40
0.0196850393700787
  0
CIRCLE
  5
194
330
1B
100
AcDbEntity
  8
Edge.Cuts
100
AcDbCircle
 10
3.3070866141732282
 20
-4.3503937007874018
 30
0
 40
0.0196850393700787
  0
CIRCLE
  5
195
330
1B
100
AcDbEntity
  8
Edge.Cuts
100
AcDbCircle
 10
6.5551181102362204
 20
-3.7795275590551181
 30
0
 40
0.0196850393700787
  0
CIRCLE
  5
196
330
1B
100
AcDbEntity
  8
Edge.Cuts
100
AcDbCircle
 10
6.5551181102362204
 20
-3.6811023622047245
 30
0
 40
0.0196850393700787
  0
CIRCLE
  5
197
330
1B
100
AcDbEntity
  8
Edge.Cuts
100
AcDbCircle
 10
6.5551181102362204
 20
-3.5826771653543306
 30
0
 40
0.0196850393700787
  0
CIRCLE
  5
198
330
1B
100
AcDbEntity
  8
Edge.Cuts
100
AcDbCircle
 10
2.8937007874015745
 20
-3.7795275590551181
 30
0
 40
0.0196850393700787
  0
CIRCLE
  5
199
330
1B
100
AcDbEntity
  8
Edge.Cuts
100
AcDbCircle
 10
2.9921259842519685
 20
-3.7795275590551181
 30
0
 40
0.0196850393700787
  0
CIRCLE
  5
19A
330
1B
100
AcDbEntity
  8
Edge.Cuts
100
AcDbCircle
 10
6.3582677165354333
 20
-4.8031496062992121
 30
0
 40
0.0196850393700787
  0
CIRCLE
  5
19B
330
1B
100
AcDbEntity
  8
Edge.Cuts
100
AcDbCircle
 10
6.4566929133858268
 20
-4.8031496062992121
 30
0
 40
0.0196850393700787
  0
CIRCLE
  5
19C
330
1B
100
AcDbEntity
  8
Edge.Cuts
100
AcDbCircle
 10
5.3641732283464565
 20
-4.8228346456692917
 30
0
 40
0.0196850393700787
  0
CIRCLE
  5
19D
330
1B
100
AcDbEntity
  8
Edge.Cuts
100
AcDbCircle
 10
5.46259842519685
 20
-4.8228346456692917
 30
0
 40
0.0196850393700787
  0
CIRCLE
  5
19E
330
1B
100
AcDbEntity
  8
Edge.Cuts
100
AcDbCircle
 10
6.8700787401574805
 20
-4.3110236220472444
 30
0
 40
0.0196850393700787
  0
CIRCLE
  5
19F
330
1B
100
AcDbEntity
  8
Edge.Cuts
100
AcDbCircle
 10
6.9685039370078741
 20
-4.3110236220472444
 30
0
 40
0.0196850393700787
  0
CIRCLE
  5
1A0
330
1B
100
AcDbEntity
  8
Edge.Cuts
100
AcDbCircle
 10
5.4685039370078741
 20
-2.3622047244094486
 30
0
 40
0.015748031496063
  0
CIRCLE
  5
1A1
330
1B
100
AcDbEntity
  8
Edge.Cuts
100
AcDbCircle
 10
5.4685039370078741
 20
-2.4622047244094487
 30
0
 40
0.015748031496063
  0
CIRCLE
  5
1A2
330
1B
100
AcDbEntity
  8
Edge.Cuts
100
AcDbCircle
 10
5.4685039370078741
 20
-2.5622047244094488
 30
0
 40
0.015748031496063
  0
CIRCLE
  5
1A3
330
1B
100
AcDbEntity
  8
Edge.Cuts
100
AcDbCircle
 10
5.4685039370078741
 20
-2.6622047244094489
 30
0
 40
0.015748031496063
  0
CIRCLE
  5
1A4
330
1B
100
AcDbEntity
  8
Edge.Cuts
100
AcDbCircle
 10
5.4685039370078741
 20
-2.762204724409449
 30
0
 40
0.015748031496063
  0
CIRCLE
  5
1A5
330
1B
100
AcDbEntity
  8
Edge.Cuts
100
AcDbCircle
 10
5.4685039370078741
 20
-2.8622047244094486
 30
0
 40
0.015748031496063
  0
CIRCLE
  5
1A6
330
1B
100
AcDbEntity
  8
Edge.Cuts
100
AcDbCircle
 10
5.4685039370078741
 20
-2.9622047244094487
 30
0
 40
0.015748031496063
  0
CIRCLE
  5
1A7
330
1B
100
AcDbEntity
  8
Edge.Cuts
100
AcDbCircle
 10
5.4685039370078741
 20
-3.0622047244094488
 30
0
 40
0.015748031496063
  0
CIRCLE
  5
1A8
330
1B
100
AcDbEntity
  8
Edge.Cuts
100
AcDbCircle
 10
5.4685039370078741
 20
-3.1622047244094489
 30
0
 40
0.015748031496063
  0
CIRCLE
  5
1A9
330
1B
100
AcDbEntity
  8
Edge.Cuts
100
AcDbCircle
 10
5.4685039370078741
 20
-3.2622047244094485
 30
0
 40
0.015748031496063
  0
CIRCLE
  5
1AA
330
1B
100
AcDbEntity
  8
Edge.Cuts
100
AcDbCircle
 10
5.4685039370078741
 20
-3.3622047244094486
 30
0
 40
0.015748031496063
  0
CIRCLE
  5
1AB
330
1B
100
AcDbEntity
  8
Edge.Cuts
100
AcDbCircle
 10
5.4685039370078741
 20
-3.4622047244094487
 30
0
 40
0.015748031496063
  0
CIRCLE
  5
1AC
330
1B
100
AcDbEntity
  8
Edge.Cuts
100
AcDbCircle
 10
5.4685039370078741
 20
-3.5622047244094488
 30
0
 40
0.015748031496063
  0
CIRCLE
  5
1AD
330
1B
100
AcDbEntity
  8
Edge.Cuts
100
AcDbCircle
 10
5.4685039370078741
 20
-3.6622047244094489
 30
0
 40
0.015748031496063
  0
CIRCLE
  5
1AE
330
1B
100
AcDbEntity
  8
Edge.Cuts
100
AcDbCircle
 10
5.4685039370078741
 20
-3.7622047244094485
 30
0
 40
0.015748031496063
  0
CIRCLE
  5
1AF
330
1B
100
AcDbEntity
  8
Edge.Cuts
100
AcDbCircle
 10
4.4685039370078741
 20
-2.3622047244094486
 30
0
 40
0.015748031496063
  0
CIRCLE
  5
1B0
330
1B
100
AcDbEntity
  8
Edge.Cuts
100
AcDbCircle
 10
4.4685039370078741
 20
-2.4622047244094487
 30
0
 40
0.015748031496063
  0
CIRCLE
  5
1B1
330
1B
100
AcDbEntity
  8
Edge.Cuts
100
AcDbCircle
 10
4.4685039370078741
 20
-2.5622047244094488
 30
0
 40
0.015748031496063
  0
CIRCLE
  5
1B2
330
1B
100
AcDbEntity
  8
Edge.Cuts
100
AcDbCircle
 10
4.4685039370078741
 20
-2.6622047244094489
 30
0
 40
0.015748031496063
  0
CIRCLE
  5
1B3
330
1B
100
AcDbEntity
  8
Edge.Cuts
100
AcDbCircle
 10
4.4685039370078741
 20
-2.762204724409449
 30
0
 40
0.015748031496063
  0
CIRCLE
  5
1B4
330
1B
100
AcDbEntity
  8
Edge.Cuts
100
AcDbCircle
 10
4.4685039370078741
 20
-2.8622047244094486
 30
0
 40
0.015748031496063
  0
CIRCLE
  5
1B5
330
1B
100
AcDbEntity
  8
Edge.Cuts
100
AcDbCircle
 10
4.4685039370078741
 20
-2.9622047244094487
 30
0
 40
0.015748031496063
  0
CIRCLE
  5
1B6
330
1B
100
AcDbEntity
  8
Edge.Cuts
100
AcDbCircle
 10
4.4685039370078741
 20
-3.0622047244094488
 30
0
 40
0.015748031496063
  0
CIRCLE
  5
1B7
330
1B
100
AcDbEntity
  8
Edge.Cuts
100
AcDbCircle
 10
4.4685039370078741
 20
-3.1622047244094489
 30
0
 40
0.015748031496063
  0
CIRCLE
  5
1B8
330
1B
100
AcDbEntity
  8
Edge.Cuts
100
AcDbCircle
 10
4.4685039370078741
 20
-3.2622047244094485
 30
0
 40
0.015748031496063
  0
CIRCLE
  5
1B9
330
1B
100
AcDbEntity
  8
Edge.Cuts
100
AcDbCircle
 10
4.4685039370078741
 20
-3.3622047244094486
 30
0
 40
0.015748031496063
  0
CIRCLE
  5
1BA
330
1B
100
AcDbEntity
  8
Edge.Cuts
100
AcDbCircle
 10
4.4685039370078741
 20
-3.4622047244094487
 30
0
 40
0.015748031496063
  0
CIRCLE
  5
1BB
330
1B
100
AcDbEntity
  8
Edge.Cuts
100
AcDbCircle
 10
4.4685039370078741
 20
-3.5622047244094488
 30
0
 40
0.015748031496063
  0
CIRCLE
  5
1BC
330
1B
100
AcDbEntity
  8
Edge.Cuts
100
AcDbCircle
 10
4.4685039370078741
 20
-3.6622047244094489
 30
0
 40
0.015748031496063
  0
CIRCLE
  5
1BD
330
1B
100
AcDbEntity
  8
Edge.Cuts
100
AcDbCircle
 10
4.4685039370078741
 20
-3.7622047244094485
 30
0
 40
0.015748031496063
  0
CIRCLE
  5
1BE
330
1B
100
AcDbEntity
  8
Edge.Cuts
100
AcDbCircle
 10
3.4448818897637796
 20
-3.4055118110236218
 30
0
 40
0.0196850393700787
  0
CIRCLE
  5
1BF
330
1B
100
AcDbEntity
  8
Edge.Cuts
100
AcDbCircle
 10
3.4448818897637796
 20
-3.3070866141732282
 30
0
 40
0.0196850393700787
  0
CIRCLE
  5
1C0
330
1B
100
AcDbEntity
  8
Edge.Cuts
100
AcDbCircle
 10
3.4448818897637796
 20
-3.2086614173228347
 30
0
 40
0.0196850393700787
  0
CIRCLE
  5
1C1
330
1B
100
AcDbEntity
  8
Edge.Cuts
100
AcDbCircle
 10
3.4448818897637796
 20
-3.1102362204724407
 30
0
 40
0.0196850393700787
  0
CIRCLE
  5
1C2
330
1B
100
AcDbEntity
  8
Edge.Cuts
100
AcDbCircle
 10
3.4448818897637796
 20
-3.0118110236220472
 30
0
 40
0.0196850393700787
  0
CIRCLE
  5
1C3
330
1B
100
AcDbEntity
  8
Edge.Cuts
100
AcDbCircle
 10
3.4448818897637796
 20
-2.9133858267716537
 30
0
 40
0.0196850393700787
  0
CIRCLE
  5
1C4
330
1B
100
AcDbEntity
  8
Edge.Cuts
100
AcDbCircle
 10
3.4448818897637796
 20
-2.8149606299212597
 30
0
 40
0.0196850393700787
  0
CIRCLE
  5
1C5
330
1B
100
AcDbEntity
  8
Edge.Cuts
100
AcDbCircle
 10
3.4448818897637796
 20
-2.7165354330708662
 30
0
 40
0.0196850393700787
  0
CIRCLE
  5
1C6
330
1B
100
AcDbEntity
  8
Edge.Cuts
100
AcDbCircle
 10
4.0354330708661417
 20
-2.7165354330708662
 30
0
 40
0.0196850393700787
  0
CIRCLE
  5
1C7
330
1B
100
AcDbEntity
  8
Edge.Cuts
100
AcDbCircle
 10
4.0354330708661417
 20
-2.8149606299212597
 30
0
 40
0.0196850393700787
  0
CIRCLE
  5
1C8
330
1B
100
AcDbEntity
  8
Edge.Cuts
100
AcDbCircle
 10
4.0354330708661417
 20
-2.9133858267716537
 30
0
 40
0.0196850393700787
  0
CIRCLE
  5
1C9
330
1B
100
AcDbEntity
  8
Edge.Cuts
100
AcDbCircle
 10
4.0354330708661417
 20
-3.0118110236220472
 30
0
 40
0.0196850393700787
  0
CIRCLE
  5
1CA
330
1B
100
AcDbEntity
  8
Edge.Cuts
100
AcDbCircle
 10
4.0354330708661417
 20
-3.1102362204724407
 30
0
 40
0.0196850393700787
  0
CIRCLE
  5
1CB
330
1B
100
AcDbEntity
  8
Edge.Cuts
100
AcDbCircle
 10
4.0354330708661417
 20
-3.2086614173228347
 30
0
 40
0.0196850393700787
  0
CIRCLE
  5
1CC
330
1B
100
AcDbEntity
  8
Edge.Cuts
100
AcDbCircle
 10
4.0354330708661417
 20
-3.3070866141732282
 30
0
 40
0.0196850393700787
  0
CIRCLE
  5
1CD
330
1B
100
AcDbEntity
  8
Edge.Cuts
100
AcDbCircle
 10
4.0354330708661417
 20
-3.4055118110236218
 30
0
 40
0.0196850393700787
  0
CIRCLE
  5
1CE
330
1B
100
AcDbEntity
  8
Edge.Cuts
100
AcDbCircle
 10
6.124488188976378
 20
-2.2712598425196848
 30
0
 40
0.015748031496063
  0
CIRCLE
  5
1CF
330
1B
100
AcDbEntity
  8
Edge.Cuts
100
AcDbCircle
 10
6.124488188976378
 20
-2.3712598425196849
 30
0
 40
0.015748031496063
  0
CIRCLE
  5
1D0
330
1B
100
AcDbEntity
  8
Edge.Cuts
100
AcDbCircle
 10
6.124488188976378
 20
-2.471259842519685
 30
0
 40
0.015748031496063
  0
CIRCLE
  5
1D1
330
1B
100
AcDbEntity
  8
Edge.Cuts
100
AcDbCircle
 10
6.124488188976378
 20
-2.5712598425196851
 30
0
 40
0.015748031496063
  0
CIRCLE
  5
1D2
330
1B
100
AcDbEntity
  8
Edge.Cuts
100
AcDbCircle
 10
4.4822834645669287
 20
-4.7834645669291334
 30
0
 40
0.015748031496063
  0
CIRCLE
  5
1D3
330
1B
100
AcDbEntity
  8
Edge.Cuts
100
AcDbCircle
 10
3.9822834645669292
 20
-4.7834645669291334
 30
0
 40
0.015748031496063
  0
CIRCLE
  5
1D4
330
1B
100
AcDbEntity
  8
Edge.Cuts
100
AcDbCircle
 10
3.1496062992125982
 20
-2.0078740157480315
 30
0
 40
0.0196850393700787
  0
CIRCLE
  5
1D5
330
1B
100
AcDbEntity
  8
Edge.Cuts
100
AcDbCircle
 10
3.0511811023622046
 20
-2.0078740157480315
 30
0
 40
0.0196850393700787
  0
CIRCLE
  5
1D6
330
1B
100
AcDbEntity
  8
Edge.Cuts
100
AcDbCircle
 10
3.3070866141732282
 20
-4.6456692913385824
 30
0
 40
0.0196850393700787
  0
CIRCLE
  5
1D7
330
1B
100
AcDbEntity
  8
Edge.Cuts
100
AcDbCircle
 10
3.3070866141732282
 20
-4.5472440944881889
 30
0
 40
0.0196850393700787
  0
CIRCLE
  5
1D8
330
1B
100
AcDbEntity
  8
Edge.Cuts
100
AcDbCircle
 10
3.3070866141732282
 20
-4.4488188976377954
 30
0
 40
0.0196850393700787
  0
CIRCLE
  5
1D9
330
1B
100
AcDbEntity
  8
Edge.Cuts
100
AcDbCircle
 10
3.3070866141732282
 20
-4.3503937007874018
 30
0
 40
0.0196850393700787
  0
CIRCLE
  5
1DA
330
1B
100
AcDbEntity
  8
Edge.Cuts
100
AcDbCircle
 10
6.5551181102362204
 20
-3.7795275590551181
 30
0
 40
0.0196850393700787
  0
CIRCLE
  5
1DB
330
1B
100
AcDbEntity
  8
Edge.Cuts
100
AcDbCircle
 10
6.5551181102362204
 20
-3.6811023622047245
 30
0
 40
0.0196850393700787
  0
CIRCLE
  5
1DC
330
1B
100
AcDbEntity
  8
Edge.Cuts
100
AcDbCircle
 10
6.5551181102362204
 20
-3.5826771653543306
 30
0
 40
0.0196850393700787
  0
CIRCLE
  5
1DD
330
1B
100
AcDbEntity
  8
Edge.Cuts
100
AcDbCircle
 10
2.8937007874015745
 20
-3.7795275590551181
 30
0
 40
0.0196850393700787
  0
CIRCLE
  5
1DE
330
1B
100
AcDbEntity
  8
Edge.Cuts
100
AcDbCircle
 10
2.9921259842519685
 20
-3.7795275590551181
 30
0
 40
0.0196850393700787
  0
CIRCLE
  5
1DF
330
1B
100
AcDbEntity
  8
Edge.Cuts
100
AcDbCircle
 10
6.3582677165354333
 20
-4.8031496062992121
 30
0
 40
0.0196850393700787
  0
CIRCLE
  5
1E0
330
1B
100
AcDbEntity
  8
Edge.Cuts
100
AcDbCircle
 10
6.4566929133858268
 20
-4.8031496062992121
 30
0
 40
0.0196850393700787
  0
CIRCLE
  5
1E1
330
1B
100
AcDbEntity
  8
Edge.Cuts
100
AcDbCircle
 10
5.3641732283464565
 20
-4.8228346456692917
 30
0
 40
0.0196850393700787
  0
CIRCLE
  5
1E2
330
1B
100
AcDbEntity
  8
Edge.Cuts
100
AcDbCircle
 10
5.46259842519685
 20
-4.8228346456692917
 30
0
 40
0.0196850393700787
  0
CIRCLE
  5
1E3
330
1B
100
AcDbEntity
  8
Edge.Cuts
100
AcDbCircle
 10
6.8700787401574805
 20
-4.3110236220472444
 30
0
 40
0.0196850393700787
  0
CIRCLE
  5
1E4
330
1B
100
AcDbEntity
  8
Edge.Cuts
100
AcDbCircle
 10
6.9685039370078741
 20
-4.3110236220472444
 30
0
 40
0.0196850393700787
  0
CIRCLE
  5
1E5
330
1B
100
AcDbEntity
  8
Edge.Cuts
100
AcDbCircle
 10
5.4685039370078741
 20
-2.3622047244094486
 30
0
 40
0.015748031496063
  0
CIRCLE
  5
1E6
330
1B
100
AcDbEntity
  8
Edge.Cuts
100
AcDbCircle
 10
5.4685039370078741
 20
-2.4622047244094487
 30
0
 40
0.015748031496063
  0
CIRCLE
  5
1E7
330
1B
100
AcDbEntity
  8
Edge.Cuts
100
AcDbCircle
 10
5.4685039370078741
 20
-2.5622047244094488
 30
0
 40
0.015748031496063
  0
CIRCLE
  5
1E8
330
1B
100
AcDbEntity
  8
Edge.Cuts
100
AcDbCircle
 10
5.4685039370078741
 20
-2.6622047244094489
 30
0
 40
0.015748031496063
  0
CIRCLE
  5
1E9
330
1B
100
AcDbEntity
  8
Edge.Cuts
100
AcDbCircle
 10
5.4685039370078741
 20
-2.762204724409449
 30
0
 40
0.015748031496063
  0
CIRCLE
  5
1EA
330
1B
100
AcDbEntity
  8
Edge.Cuts
100
AcDbCircle
 10
5.4685039370078741
 20
-2.8622047244094486
 30
0
 40
0.015748031496063
  0
CIRCLE
  5
1EB
330
1B
100
AcDbEntity
  8
Edge.Cuts
100
AcDbCircle
 10
5.4685039370078741
 20
-2.9622047244094487
 30
0
 40
0.015748031496063
  0
CIRCLE
  5
1EC
330
1B
100
AcDbEntity
  8
Edge.Cuts
100
AcDbCircle
 10
5.4685039370078741
 20
-3.0622047244094488
 30
0
 40
0.015748031496063
  0
CIRCLE
  5
1ED
330
1B
100
AcDbEntity
  8
Edge.Cuts
100
AcDbCircle
 10
5.4685039370078741
 20
-3.1622047244094489
 30
0
 40
0.015748031496063
  0
CIRCLE
  5
1EE
330
1B
100
AcDbEntity
  8
Edge.Cuts
100
AcDbCircle
 10
5.4685039370078741
 20
-3.2622047244094485
 30
0
 40
0.015748031496063
  0
CIRCLE
  5
1EF
330
1B
100
AcDbEntity
  8
Edge.Cuts
100
AcDbCircle
 10
5.4685039370078741
 20
-3.3622047244094486
 30
0
 40
0.015748031496063
  0
CIRCLE
  5
1F0
330
1B
100
AcDbEntity
  8
Edge.Cuts
100
AcDbCircle
 10
5.4685039370078741
 20
-3.4622047244094487
 30
0
 40
0.015748031496063
  0
CIRCLE
  5
1F1
330
1B
100
AcDbEntity
  8
Edge.Cuts
100
AcDbCircle
 10
5.4685039370078741
 20
-3.5622047244094488
 30
0
 40
0.015748031496063
  0
CIRCLE
  5
1F2
330
1B
100
AcDbEntity
  8
Edge.Cuts
100
AcDbCircle
 10
5.4685039370078741
 20
-3.6622047244094489
 30
0
 40
0.015748031496063
  0
CIRCLE
  5
1F3
330
1B
100
AcDbEntity
  8
Edge.Cuts
100
AcDbCircle
 10
5.4685039370078741
 20
-3.7622047244094485
 30
0
 40
0.015748031496063
  0
CIRCLE
  5
1F4
330
1B
100
AcDbEntity
  8
Edge.Cuts
100
AcDbCircle
 10
4.4685039370078741
 20
-2.3622047244094486
 30
0
 40
0.015748031496063
  0
CIRCLE
  5
1F5
330
1B
100
AcDbEntity
  8
Edge.Cuts
100
AcDbCircle
 10
4.4685039370078741
 20
-2.4622047244094487
 30
0
 40
0.015748031496063
  0
CIRCLE
  5
1F6
330
1B
100
AcDbEntity
  8
Edge.Cuts
100
AcDbCircle
 10
4.4685039370078741
 20
-2.5622047244094488
 30
0
 40
0.015748031496063
  0
CIRCLE
  5
1F7
330
1B
100
AcDbEntity
  8
Edge.Cuts
100
AcDbCircle
 10
4.4685039370078741
 20
-2.6622047244094489
 30
0
 40
0.015748031496063
  0
CIRCLE
  5
1F8
330
1B
100
AcDbEntity
  8
Edge.Cuts
100
AcDbCircle
 10
4.4685039370078741
 20
-2.762204724409449
 30
0
 40
0.015748031496063
  0
CIRCLE
  5
1F9
330
1B
100
AcDbEntity
  8
Edge.Cuts
100
AcDbCircle
 10
4.4685039370078741
 20
-2.8622047244094486
 30
0
 40
0.015748031496063
  0
CIRCLE
  5
1FA
330
1B
100
AcDbEntity
  8
Edge.Cuts
100
AcDbCircle
 10
4.4685039370078741
 20
-2.9622047244094487
 30
0
 40
0.015748031496063
  0
CIRCLE
  5
1FB
330
1B
100
AcDbEntity
  8
Edge.Cuts
100
AcDbCircle
 10
4.4685039370078741
 20
-3.0622047244094488
 30
0
 40
0.015748031496063
  0
CIRCLE
  5
1FC
330
1B
100
AcDbEntity
  8
Edge.Cuts
100
AcDbCircle
 10
4.4685039370078741
 20
-3.1622047244094489
 30
0
 40
0.015748031496063
  0
CIRCLE
  5
1FD
330
1B
100
AcDbEntity
  8
Edge.Cuts
100
AcDbCircle
 10
4.4685039370078741
 20
-3.2622047244094485
 30
0
 40
0.015748031496063
  0
CIRCLE
  5
1FE
330
1B
100
AcDbEntity
  8
Edge.Cuts
100
AcDbCircle
 10
4.4685039370078741
 20
-3.3622047244094486
 30
0
 40
0.015748031496063
  0
CIRCLE
  5
1FF
330
1B
100
AcDbEntity
  8
Edge.Cuts
100
AcDbCircle
 10
4.4685039370078741
 20
-3.4622047244094487
 30
0
 40
0.015748031496063
  0
CIRCLE
  5
200
330
1B
100
AcDbEntity
  8
Edge.Cuts
100
AcDbCircle
 10
4.4685039370078741
 20
-3.5622047244094488
 30
0
 40
0.015748031496063
  0
CIRCLE
  5
201
330
1B
100
AcDbEntity
  8
Edge.Cuts
100
AcDbCircle
 10
4.4685039370078741
 20
-3.6622047244094489
 30
0
 40
0.015748031496063
  0
CIRCLE
  5
202
330
1B
100
AcDbEntity
  8
Edge.Cuts
100
AcDbCircle
 10
4.4685039370078741
 20
-3.7622047244094485
 30
0
 40
0.015748031496063
  0
CIRCLE
  5
203
330
1B
100
AcDbEntity
  8
Edge.Cuts
100
AcDbCircle
 10
3.4448818897637796
 20
-3.4055118110236218
 30
0
 40
0.0196850393700787
  0
CIRCLE
  5
204
330
1B
100
AcDbEntity
  8
Edge.Cuts
100
AcDbCircle
 10
3.4448818897637796
 20
-3.3070866141732282
 30
0
 40
0.0196850393700787
  0
CIRCLE
  5
205
330
1B
100
AcDbEntity
  8
Edge.Cuts
100
AcDbCircle
 10
3.4448818897637796
 20
-3.2086614173228347
 30
0
 40
0.0196850393700787
  0
CIRCLE
  5
206
330
1B
100
AcDbEntity
  8
Edge.Cuts
100
AcDbCircle
 10
3.4448818897637796
 20
-3.1102362204724407
 30
0
 40
0.0196850393700787
  0
CIRCLE
  5
207
330
1B
100
AcDbEntity
  8
Edge.Cuts
100
AcDbCircle
 10
3.4448818897637796
 20
-3.0118110236220472
 30
0
 40
0.0196850393700787
  0
CIRCLE
  5
208
330
1B
100
AcDbEntity
  8
Edge.Cuts
100
AcDbCircle
 10
3.4448818897637796
 20
-2.9133858267716537
 30
0
 40
0.0196850393700787
  0
CIRCLE
  5
209
330
1B
100
AcDbEntity
  8
Edge.Cuts
100
AcDbCircle
 10
3.4448818897637796
 20
-2.8149606299212597
 30
0
 40
0.0196850393700787
  0
CIRCLE
  5
20A
330
1B
100
AcDbEntity
  8
Edge.Cuts
100
AcDbCircle
 10
3.4448818897637796
 20
-2.7165354330708662
 30
0
 40
0.0196850393700787
  0
ENDSEC
  0
SECTION
  2
OBJECTS
  0
DICTIONARY
  5
21
330
0
100
AcDbDictionary
281
1
  3
ACAD_GROUP
350
20B
  3
ACAD_LAYOUT
350
22
  3
ACAD_PLOTSTYLENAME
350
11
  0
DICTIONARY
  5
20B
330
21
100
AcDbDictionary
281
1
  0
ACDBDICTIONARYWDFLT
  5
11
330
21
100
AcDbDictionary
281
1
  3
Normal
350
10
100
AcDbDictionaryWithDefault
340
10
  0
ACDBPLACEHOLDER
  5
10
330
11
  0
DICTIONARY
  5
22
330
21
100
AcDbDictionary
281
1
  3
Model
350
1E
  3
Layout1
350
1F
  3
Layout2
350
20
  0
LAYOUT
  5
1E
330
22
100
AcDbPlotSettings
  1

  2
none_device
  4
A3
  6

 40
0.0
 41
0.0
 42
0.0
 43
0.0
 44
420.0
 45
297.0
 46
0.0
 47
0.0
 48
0.0
 49
0.0
140
0.0
141
0.0
142
1.0
143
1.0
 70
1024
 72
1
 73
0
 74
5
  7

 75
16
 76
0
 77
2
 78
300
147
1.0
148
0.0
149
0.0
100
AcDbLayout
  1
Model
 70
1
 71
0
 10
0.0
 20
0.0
 11
420.0
 21
297.0
 12
0.0
 22
0.0
 32
0.0
 14
1e+20
 24
1e+20
 34
1e+20
 15
-1e+20
 25
-1e+20
 35
-1e+20
146
0.0
 13
0.0
 23
0.0
 33
0.0
 16
1.0
 26
0.0
 36
0.0
 17
0.0
 27
1.0
 37
0.0
 76
0
330
1B
  0
LAYOUT
  5
1F
330
22
100
AcDbPlotSettings
  1

  2
none_device
  4
A3
  6

 40
0.0
 41
0.0
 42
0.0
 43
0.0
 44
420.0
 45
297.0
 46
0.0
 47
0.0
 48
0.0
 49
0.0
140
0.0
141
0.0
142
1.0
143
1.0
 70
0
 72
1
 73
0
 74
5
  7

 75
16
 76
0
 77
2
 78
300
147
1.0
148
0.0
149
0.0
100
AcDbLayout
  1
Layout1
 70
1
 71
1
 10
0.0
 20
0.0
 11
420.0
 21
297.0
 12
0.0
 22
0.0
 32
0.0
 14
1e+20
 24
1e+20
 34
1e+20
 15
-1e+20
 25
-1e+20
 35
-1e+20
146
0.0
 13
0.0
 23
0.0
 33
0.0
 16
1.0
 26
0.0
 36
0.0
 17
0.0
 27
1.0
 37
0.0
 76
0
330
1C
  0
LAYOUT
  5
20
330
22
100
AcDbPlotSettings
  1

  2
none_device
  4
A3
  6

 40
0.0
 41
0.0
 42
0.0
 43
0.0
 44
420.0
 45
297.0
 46
0.0
 47
0.0
 48
0.0
 49
0.0
140
0.0
141
0.0
142
1.0
143
1.0
 70
0
 72
1
 73
0
 74
5
  7

 75
16
 76
0
 77
2
 78
300
147
1.0
148
0.0
149
0.0
100
AcDbLayout
  1
Layout2
 70
1
 71
2
 10
0.0
 20
0.0
 11
420.0
 21
297.0
 12
0.0
 22
0.0
 32
0.0
 14
1e+20
 24
1e+20
 34
1e+20
 15
-1e+20
 25
-1e+20
 35
-1e+20
146
0.0
 13
0.0
 23
0.0
 33
0.0
 16
1.0
 26
0.0
 36
0.0
 17
0.0
 27
1.0
 37
0.0
 76
0
330
1D
  0
ENDSEC
  0
EOF
